<defs>
<font horiz-adv-x="326" ><font-face
    font-family="komikatitle-kaps"
    units-per-em="1000"
    panose-1="2 0 5 6 0 0 0 2 0 4"
    ascent="1127"
    descent="-271"
    alphabetic="0" />
<missing-glyph horiz-adv-x="500" />
<glyph unicode=" " glyph-name="space" horiz-adv-x="241" />
<glyph unicode="!" glyph-name="exclam" horiz-adv-x="267" d="M205 761Q189 775 169 786T131 804Q112 812 104 807T90 778Q80 728 68 662T45 527T24 390T8 270Q4 244 8 230T28 205Q56 184 90 175Q105 170 112 174T122 199Q131 254 143 316T168 442T196 571T224
697Q229 718 225 732T205 761ZM-28 64Q-30 16 -9 -10T44 -36Q59 -36 71 -29T91 -10T105 13T113 35Q116 47 116 63T110 94T93 123T64 144Q43 153 27 149T-1 133T-20 103T-28 64Z" />
<glyph unicode="&quot;" glyph-name="quotedbl" horiz-adv-x="374" d="M136 602Q143 617 151 638T166 684Q172 701 177 720T185 756T189 788T190 811Q189 826 176 842Q166 854 155 863T131 881Q117 891 108 889T95 866Q90 838 83 802T67 729T50 658T35 601Q27
569 55 565Q66 563 78 564T100 568Q122 572 136 602ZM281 572Q289 585 299 605T319 648T337 694T350 738Q355 766 355 771Q355 783 344 803Q336 814 326 825T303 846Q275 871 265 836Q257 810 246 776T223 707T199 639T178 586Q166 554 196 547Q207 545 219 544T242
544Q265 546 281 572Z" />
<glyph unicode="#" glyph-name="numbersign" horiz-adv-x="478" d="M419 461Q402 459 384 458T347 454Q341 425 335 396T324 337Q350 336 361 326T384 292Q392 276 390 269T372 259Q356 257 340 255T307 250Q299 205 292 168T280 98Q276 80 270 79T251 85Q234
96 224 111T212 151Q211 159 211 169T213 191Q215 201 216 210T219 232Q199 225 179 222T138 211Q132 174 127 142T117 80Q113 62 108 61T89 67Q67 81 55 104T48 172L49 186Q25 181 10 194T-19 234Q-27 251 -26 258T-9 271Q8 278 26 282T64 293Q69 319 73 346T82
403Q82 402 79 402Q47 394 31 408T1 451Q-8 468 -6 475T12 487Q30 494 53 498T102 509Q111 557 120 600T138 679Q147 713 171 690Q194 669 205 644T209 581Q205 555 197 526Q217 528 236 530T274 535Q283 581 293 624T312 702Q321 736 346 712Q369 691 379 665T381
602Q377 588 374 573T366 541Q397 540 409 528T432 492Q440 475 437 469T419 461ZM255 439Q234 435 215 432T176 424Q171 395 166 369T156 314Q176 318 196 321T235 328Q239 356 244 383T255 439Z" />
<glyph unicode="$" glyph-name="dollar" horiz-adv-x="369" d="M146 668Q134 667 124 663T106 653Q71 625 46 579T8 488Q-2 437 11 395T51 324Q70 302 94 283T137 248T167 219T171 197Q160 183 127 192T54 235Q40 249 18 252T-20 241Q-29 233 -29 218Q-29 204
-9 175Q6 152 22 136T56 108Q54 96 53 85T51 59Q49 23 57 -12T89 -64Q102 -74 109 -72T118 -51Q121 -25 126 10T138 77Q139 76 146 76H155Q182 76 201 86T234 112T257 146T271 180Q280 217 269 244T235 295T186 340T137 388Q118 413 120 443T134 499T161 541T186
553Q191 550 191 539Q193 522 191 498T186 455Q184 419 201 397T244 360Q264 351 273 373Q277 386 280 404T287 442T291 481T293 517Q293 536 289 558T264 604Q248 622 236 631Q240 650 243 669T248 703Q253 739 243 765T212 809Q187 832 177 799Q170 776 162 740T146
668Z" />
<glyph unicode="%" glyph-name="percent" horiz-adv-x="593" d="M458 610Q476 639 472 667T451 722Q433 752 416 726Q400 702 381 685T343 656T305 639T273 636Q238 639 220 673Q207 699 196 714Q175 737 138 748Q127 751 112 747T86 733Q62 709 45 672T19 593T11
510T24 436Q31 422 39 408T57 386Q68 376 82 370T110 360Q149 353 177 382Q192 398 202 421T219 470T229 525T232 581Q257 570 284 573T335 595Q300 536 262 469T189 337T125 214T77 119Q60 80 65 55T89 8Q100 -2 106 -3T120 8Q136 42 161 90T218 195T282 311T348
426T409 530T458 610ZM497 281Q495 299 488 316T468 348Q459 358 444 367T412 382Q400 385 385 381T358 367Q333 343 316 306T289 227T280 144T292 70T323 20Q334 10 348 5T376 -4Q413 -13 442 16Q457 32 468 54T486 103T497 157T501 212Q501 231 500 248T497 281ZM149
673Q155 670 157 657T159 624Q159 605 157 582T151 535Q141 478 127 451T100 431Q87 437 87 475T96 568Q100 587 107 607T121 642T136 667T149 673ZM421 307Q426 304 428 290T430 256T427 213T419 168Q408 113 393 85T366 64Q353 71 353 109Q353 150 366 202Q370
221 377 241T392 277T408 301T421 307Z" />
<glyph unicode="&amp;" glyph-name="ampersand" horiz-adv-x="519" d="M307 56Q263 18 211 0Q193 -8 172 -13T129 -17T81 -3T29 37Q-29 100 -31 161T2 283Q20 312 45 337T99 385Q85 414 78 431Q52 495 49 543T66 644Q85 692 122 725T202 769Q221 774 239 775T274
772T309 752T347 710Q395 646 399 580T365 457Q345 425 313 396T248 341Q263 313 279 286T313 233Q328 248 341 264T371 298Q387 314 396 314Q407 314 413 300Q427 267 421 234T398 168Q393 160 389 152T380 137Q393 120 403 106T425 77Q439 60 439 51T427 30T407
13T383 2Q368 0 357 7T325 35Q317 45 307 56ZM191 456Q211 471 229 487T260 520Q269 530 277 546T288 581T289 618T274 654Q261 650 247 642T221 622T198 598T183 571Q164 525 188 463L191 456ZM230 162Q213 186 197 212T163 268Q125 230 109 198T93 142Q93 129
98 121Q110 104 146 115T230 162Z" />
<glyph unicode="&apos;" glyph-name="quotesingle" horiz-adv-x="212" d="M129 572Q137 585 147 605T167 648T185 694T198 738Q203 766 203 771Q203 783 192 803Q184 814 174 825T151 846Q123 871 113 836Q105 810 94 776T70 707T47 640T27 586Q15 555 44 547Q56
545 67 544T90 544Q113 546 129 572Z" />
<glyph unicode="(" glyph-name="parenleft" horiz-adv-x="243" d="M137 812Q86 732 55 634T13 433T13 227T60 38Q80 -7 105 -21T155 -33Q169 -30 172 -26T168 -4Q139 69 130 154T126 325T151 494T201 644Q236 722 180 808Q156 846 137 812Z" />
<glyph unicode=")" glyph-name="parenright" horiz-adv-x="271" d="M179 670Q168 721 140 758T63 806Q39 813 36 801T38 767Q60 674 64 566T58 353T19 154T-49 -2Q-65 -31 -35 -36Q24 -44 59 0Q100 54 130 134T176 305T193 491T179 670Z" />
<glyph unicode="*" glyph-name="asterisk" horiz-adv-x="475" d="M396 505Q422 511 405 540Q391 566 371 578T316 584Q305 582 293 580T269 574Q272 592 276 611T285 650Q293 686 282 712T247 760Q223 783 214 749Q204 710 197 674T183 602Q172 614 163 627T140
654Q116 684 92 687T45 677Q21 662 41 636Q66 604 88 577T131 526Q99 514 71 501T19 476Q4 469 3 461T12 438Q29 410 50 397T100 397Q114 404 128 409T156 421Q154 410 153 398T150 372Q145 327 157 305T191 269Q205 259 210 261T219 281Q225 316 229 347T239 410Q250
399 262 387T288 361Q320 329 341 329Q361 329 381 344Q392 355 393 361T381 382Q357 408 336 430T294 475Q320 483 345 491T396 505Z" />
<glyph unicode="+" glyph-name="plus" horiz-adv-x="488" d="M376 316Q340 314 303 313T228 306Q220 258 214 213T202 131Q199 112 194 109T175 114Q163 122 152 129T126 148Q105 165 106 198Q108 216 109 239T115 290Q98 288 82 285T51 277T28 276T9 295Q-1 309
-11 331T-26 371T-23 396T-3 407Q23 414 59 419T135 428Q143 475 151 516T169 588Q173 602 181 609T202 611Q217 603 233 590T259 563Q270 549 272 539T269 511Q265 494 261 476T252 437Q299 439 331 437Q357 436 371 407Q379 390 383 376T393 346Q398 329 394
323T376 316Z" />
<glyph unicode="," glyph-name="comma" horiz-adv-x="209" d="M38 -119Q45 -109 55 -93T75 -58T94 -20T109 17Q116 34 115 46T103 73Q90 90 76 102T46 125Q32 135 23 133T6 113Q-9 59 -30 8T-70 -92Q-82 -122 -57 -132Q-44 -139 -29 -143T0 -146Q11 -144 19 -139T38
-119Z" />
<glyph unicode="-" glyph-name="hyphen" horiz-adv-x="395" d="M-56 492Q-36 498 -8 504T51 514T115 521T178 524Q205 524 224 487Q234 465 240 446T253 409Q260 387 256 380T236 372Q183 367 127 358T22 332Q9 327 -2 333T-26 360Q-39 380 -48 399T-66 438Q-85
484 -56 492Z" />
<glyph unicode="." glyph-name="period" horiz-adv-x="221" d="M-19 73Q-21 27 0 0T53 -25Q68 -25 80 -18T100 0T113 23T121 44Q124 57 124 73Q124 89 119 104T102 133T73 154Q53 162 37 158T8 142T-11 112T-19 73Z" />
<glyph unicode="/" glyph-name="slash" horiz-adv-x="354" d="M322 713Q309 728 295 741T267 767Q238 793 222 756Q206 724 184 670T136 550T85 413T36 278T-5 160T-34 76Q-41 52 -40 36Q-38 18 -26 7Q-16 -2 -6 -11T18 -32Q33 -43 41 -40T55 -18Q69 19 90 74T137
193T190 324T244 454T292 568T329 653Q337 671 337 683T322 713Z" />
<glyph unicode="0" glyph-name="zero" horiz-adv-x="457" d="M335 701Q315 721 285 734T222 755Q198 760 170 751T121 720Q73 669 42 592T-4 429T-16 260T4 110Q14 82 31 60T63 26Q86 9 112 0T162 -12Q200 -17 229 -8T284 35Q321 84 345 154T381 300T394 451T386
588Q381 621 370 648T335 701ZM244 620Q256 615 261 586T266 515Q266 473 262 427T251 338Q243 285 231 242T204 167T174 122T145 113Q131 120 123 147T114 214T116 299T129 390T152 478T183 555T215 606T244 620Z" />
<glyph unicode="1" glyph-name="one" horiz-adv-x="258" d="M208 652Q213 673 209 684T189 709Q172 725 155 735T121 751Q103 758 95 754T75 731Q63 710 49 682T25 625Q16 601 22 591T53 563Q43 506 33 438T15 303T1 178T-7 84Q-9 58 -5 43T11 17Q27 5 42 0T74
-12Q91 -19 97 -14T106 8Q111 51 118 105T134 217T152 337T171 455T190 563T208 652Z" />
<glyph unicode="2" glyph-name="two" horiz-adv-x="413" d="M148 143Q174 149 203 152T252 156Q267 157 277 150T296 125Q304 111 311 92T323 58Q328 40 324 34T305 25Q281 23 250 18T186 7T125 -6T76 -19Q47 -27 36 -23T16 -6Q5 6 -10 28T-36 68Q-40 75 -43 84T-48
102T-47 120T-36 138Q-1 175 36 222T109 318T173 416T223 504T252 571T253 605Q246 612 235 608T209 592T180 561T149 522Q126 498 95 497T36 509Q28 513 23 518T17 534T19 557T31 592Q60 656 102 699T192 754Q220 761 245 755T293 733T331 699T358 660Q372 631
376 604T379 550T368 496T347 439Q333 404 311 366T263 288T207 212T148 143Z" />
<glyph unicode="3" glyph-name="three" horiz-adv-x="433" d="M249 371Q309 407 344 450Q358 468 367 494T377 552T369 618T337 688Q316 719 295 735T254 758T216 762T183 756Q162 750 142 738T103 710T71 676T46 641Q30 613 51 588Q62 576 77 569T109 559T142
559T171 575Q188 589 207 602T241 616Q251 616 256 607Q263 595 256 576T224 532T159 480T57 426Q32 414 48 377Q67 334 95 312T152 296Q175 300 189 298T217 282Q223 275 226 262T229 232T223 196T205 158Q179 120 144 115T52 150Q33 164 8 167T-37 152Q-49 142
-49 126T-22 76Q23 18 69 -3T157 -24Q212 -24 256 -1T335 85Q349 112 356 143T361 207T345 271T307 332Q294 347 280 355T249 371Z" />
<glyph unicode="4" glyph-name="four" horiz-adv-x="474" d="M346 368Q373 366 385 335Q392 317 395 303T404 271Q408 252 404 245T383 236Q368 235 353 234T323 232Q312 166 303 108T287 1Q284 -18 278 -23T254 -22Q241 -17 225 -9T195 11Q181 25 177 38T175
78Q177 102 181 136T193 216Q164 211 136 207T82 196Q68 192 56 193T31 212Q16 229 2 250T-24 294Q-32 312 -32 328T-23 366Q-4 409 25 462T88 567T155 667T216 748Q230 763 240 765T267 761Q276 757 291 748T322 729T354 707T379 689Q395 675 398 664T397 631Q386
580 373 512T346 368ZM94 346Q121 351 153 354T217 361Q228 420 238 479T261 594Q239 567 217 536T174 473T132 408T94 346Z" />
<glyph unicode="5" glyph-name="five" horiz-adv-x="393" d="M198 581Q240 588 279 594T353 606Q370 609 374 616T374 643Q370 661 367 681T356 720Q344 755 310 752Q267 750 223 746T130 732Q97 725 85 688Q60 606 43 538T15 414Q10 388 14 374T27 349Q41 335
50 327T70 308Q80 297 87 296T114 302Q123 306 135 308T159 311T180 310T194 304Q198 298 201 282T204 245Q204 225 199 202T184 160Q177 145 167 134T144 119T112 122T68 154Q51 171 23 172T-25 157Q-38 147 -36 132Q-34 115 -10 79Q17 28 56 9T138 -10Q176 -9
204 5T253 39T286 82T305 126Q334 217 321 285T262 389Q211 428 155 428Q163 463 174 502T198 581Z" />
<glyph unicode="6" glyph-name="six" horiz-adv-x="408" d="M178 454Q206 514 241 569T318 673Q332 690 329 702T311 726Q297 736 273 746T229 762Q209 767 201 763T178 743Q118 674 79 599T17 452T-16 316T-25 205Q-26 133 -3 85T78 4Q108 -10 132 -15T175 -18T209
-8T236 11Q255 29 273 58T304 125T325 206T329 294Q327 340 310 375T243 438Q210 455 178 454ZM109 265Q127 304 151 322T193 331Q212 320 211 284T195 202Q177 148 154 124T111 113Q94 124 94 164T109 265Z" />
<glyph unicode="7" glyph-name="seven" horiz-adv-x="429" d="M248 610Q218 552 189 490T132 362T80 232T35 103Q28 79 29 65T41 34Q53 17 68 3T98 -22Q114 -32 121 -30T134 -10Q160 64 191 143T257 298T325 446T391 577Q403 599 402 617T390 654Q382 669 371
688T346 728Q335 748 323 754T293 760Q262 758 226 755T155 748T87 737T29 721Q18 717 15 710T20 686Q27 668 39 647T59 611Q72 594 86 590T115 589Q127 591 143 593T177 599T213 605T248 610Z" />
<glyph unicode="8" glyph-name="eight" horiz-adv-x="436" d="M377 485Q406 546 391 604T333 708Q298 743 261 756T186 750Q141 727 106 689T48 600Q22 540 34 486T94 385Q49 346 14 298T-27 188Q-33 127 -6 76T79 0Q110 -14 142 -18T204 -13T262 18T312 79Q331
115 341 150T349 221T328 292T269 364Q306 393 334 422T377 485ZM186 296Q214 267 213 233T196 163Q179 125 157 110T119 102Q107 108 100 127T103 179T135 241T186 296ZM244 635Q282 596 263 552T174 448Q162 464 160 485T166 531T194 582T244 635Z" />
<glyph unicode="9" glyph-name="nine" horiz-adv-x="406" d="M130 250Q105 204 75 161T10 78Q-4 63 -1 51T13 28Q27 13 39 6T68 -12Q85 -23 97 -18T123 0Q176 50 221 120T298 267T348 419T362 552Q360 588 351 616T327 667T289 708T238 742Q210 757 187 760T145
760T111 746T84 725Q61 702 42 666T10 586T-7 495T-5 402Q1 351 24 317T95 260Q103 255 112 254T130 250ZM189 386Q163 351 139 364Q128 369 123 382T116 415T118 458T127 505Q134 531 144 554T166 595T188 620T210 624Q221 618 225 597T227 545T215 473T189 386Z"
/>
<glyph unicode=":" glyph-name="colon" horiz-adv-x="246" d="M17 385Q15 339 37 311T90 284Q105 284 117 291T137 310T151 334T159 356Q160 363 160 370T161 385Q161 408 149 431T110 466Q90 474 74 470T45 454T26 424T17 385ZM-29 84Q-34 39 -16 12T31 -23Q60
-31 82 -14T110 35Q112 48 112 66T106 101T90 133T60 155Q22 169 -1 146T-29 84Z" />
<glyph unicode=";" glyph-name="semicolon" horiz-adv-x="260" d="M-36 462Q-30 407 -5 374T52 341Q68 341 79 350T97 372T107 401T111 427Q112 442 110 461T100 499T79 534T45 559Q25 569 9 564T-17 545T-33 508T-36 462ZM61 -144Q67 -132 74 -113T89 -71T102
-25T113 20Q121 46 109 71T67 122Q54 135 42 145T21 158T5 157T-3 136Q-13 70 -26 8T-51 -112Q-60 -146 -31 -160Q-17 -168 -2 -173T27 -177Q38 -175 46 -168T61 -144Z" />
<glyph unicode="&lt;" glyph-name="less" horiz-adv-x="348" d="M258 450Q272 456 274 464T266 488Q251 513 230 539Q222 549 215 552T199 555T179 548T150 534Q119 517 84 496T25 456Q14 450 9 439T0 413T-4 383T-7 353Q-10 344 -8 325Q-6 314 3 308Q54 280 104
251T200 190Q214 179 220 182T232 202Q238 224 241 260Q242 277 237 287T219 308Q200 322 175 338T121 371Q156 393 190 413T258 450Z" />
<glyph unicode="=" glyph-name="equal" horiz-adv-x="436" d="M75 398Q59 396 50 400T33 422Q26 436 20 453T9 486Q4 505 11 513T30 524Q60 529 96 532T169 535T241 535T307 529Q335 526 346 498Q352 481 356 467T364 439Q368 422 363 416T344 412Q274 414 208
412T75 398ZM68 192Q52 188 43 192T25 212Q17 226 10 243T-3 275Q-10 293 -4 303T15 316Q46 323 81 329T153 338T224 343T290 344Q317 344 329 316Q337 300 341 286T350 258Q355 241 351 235T332 228Q196 222 68 192Z" />
<glyph unicode="&gt;" glyph-name="greater" horiz-adv-x="370" d="M299 397Q293 358 284 329Q279 312 273 305T252 290Q201 270 161 251T83 208Q72 200 65 201T45 214Q34 225 22 241T-1 275Q-9 289 -5 298T8 313Q36 330 76 349T159 386Q135 400 112 412T65 436Q50
442 46 449T36 474Q34 489 34 511T35 550Q37 564 45 567T65 565Q86 556 112 543T167 513T225 480T281 444Q293 436 298 428T299 397Z" />
<glyph unicode="?" glyph-name="question" horiz-adv-x="453" d="M89 198Q102 189 118 180T147 167T170 167T178 190Q184 248 205 283T252 343T306 390T354 444Q367 465 377 492T388 553T381 622T347 698Q336 717 319 734T281 763T234 779T182 776Q137 765 98
727T27 629Q6 590 9 573T28 548Q58 530 89 533T143 560Q158 576 172 591T199 620T226 641T253 649Q262 649 270 642T281 619Q283 595 268 562T207 491Q189 475 167 455T124 407T88 343T70 260Q68 236 71 223T89 198ZM32 65Q28 20 48 -5T98 -35Q131 -42 152 -24T179
23Q180 26 180 35V50Q180 73 170 95T128 132Q107 141 90 139T61 126T41 100T32 65Z" />
<glyph unicode="@" glyph-name="at" horiz-adv-x="595" d="M512 300Q525 360 524 423T505 542T453 644T364 716Q311 743 254 742T145 709T55 618T0 467Q-15 371 -5 296T32 165T96 74T171 22Q216 1 250 1T308 11Q316 15 317 23T312 41Q302 56 287 66T256 82Q246
85 237 85T218 86T197 89T172 96Q154 103 132 125T94 187T73 283T84 419T130 551T196 635T272 671T346 660Q387 640 408 602T436 518T442 427T433 347Q416 261 393 221T355 197Q350 202 350 218Q350 237 354 267T363 328T373 385T380 424Q384 447 380 461T353 493Q348
518 335 536T305 562Q281 572 256 562T208 527T167 462T138 374Q127 326 129 291T143 231T170 191T204 169Q260 146 296 188Q315 148 350 136Q372 126 395 127T439 145T480 200T512 300ZM316 476Q306 421 295 374T271 294T247 243T225 229Q213 233 209 261T218
354Q225 387 237 415T262 463T286 493T302 502Q313 496 316 476Z" />
<glyph unicode="A" glyph-name="A" horiz-adv-x="479" d="M275 186Q277 147 280 113T286 50Q289 22 295 11T318 -7Q334 -15 349 -16T381 -18Q398 -18 403 -11T407 14Q403 98 400 190T394 372T391 540T391 677Q392 700 387 714T362 737Q336 747 307 757T231 770Q204
773 190 760T167 726Q142 666 112 585T53 417T-2 247T-47 97Q-53 68 -52 56T-44 34T-27 16T-7 2T12 -10Q27 -18 34 -15T48 5Q58 37 68 70T93 142Q130 156 178 166T275 186ZM152 316Q181 400 209 476T261 612Q261 546 263 476T267 334Q209 328 152 316Z" />
<glyph unicode="B" glyph-name="B" horiz-adv-x="463" d="M313 364Q333 380 348 396T378 428Q404 460 420 502T428 592Q420 635 405 666T368 726Q344 756 302 764T211 767T116 741T34 698Q31 636 24 564T8 418T-8 274T-20 145Q-22 127 -22 115T-18 94T-10 76T3
55Q22 32 36 18T71 -10Q81 -19 89 -23T105 -29T123 -28T145 -20Q169 -11 195 2T248 33T297 70T337 114Q360 143 370 173T376 246Q371 281 355 313T313 364ZM149 427Q157 472 164 512T179 587Q230 619 266 620T307 601Q310 588 301 566T270 519T219 470T149 427ZM123
278Q148 290 169 294T206 296T231 286T244 269Q247 253 238 234T209 196T162 159T100 128Q105 166 111 203T123 278Z" />
<glyph unicode="C" glyph-name="C" horiz-adv-x="428" d="M311 206Q250 231 212 174Q160 92 133 106Q119 112 113 138T105 202T108 287T122 378Q131 420 146 467T178 553T211 616T239 635Q251 629 253 608T256 560Q256 552 256 544T258 528Q264 486 282 462T340
426Q361 420 366 428T375 451Q381 481 383 525T383 606Q381 638 373 663T340 713Q317 733 283 750T215 772Q193 774 168 766T118 730Q87 694 61 645T16 538T-15 419T-30 298T-29 185T-9 91Q0 63 17 42T52 10Q72 0 97 -11T154 -27Q184 -31 214 -20T264 11Q282 31
300 61T329 126Q339 156 338 176T311 206Z" />
<glyph unicode="D" glyph-name="D" horiz-adv-x="489" d="M34 706L-22 155Q-25 131 -24 116T-20 89T-10 70T2 52Q19 32 32 19T65 -9Q101 -38 136 -18Q202 10 253 55T339 155T396 271T425 392T426 509T401 611Q380 664 351 696T289 744T220 762T151 758T87 737T34
706ZM103 138Q120 259 138 373T179 596Q217 613 244 600T283 558Q288 544 291 524T293 478Q292 440 281 394T248 302T190 213T103 138Z" />
<glyph unicode="E" glyph-name="E" horiz-adv-x="385" d="M45 710L-31 132Q-33 106 -28 87T-11 54Q2 36 12 25T33 2Q43 -8 56 -13T97 -9Q137 2 181 15T267 40Q284 45 287 52T287 80Q282 98 277 115T264 151Q257 168 247 174T219 178Q187 175 159 171T101 158Q106
184 111 211T121 268Q158 279 197 288T275 308Q292 313 296 320T295 348Q291 366 287 383T274 418Q267 435 257 440T230 445Q210 444 192 443T154 437Q164 482 172 523T188 601Q230 609 268 615T342 626Q359 629 363 636T365 665Q361 683 358 698T346 732Q336 768
303 766Q233 762 165 745T45 710Z" />
<glyph unicode="F" glyph-name="F" horiz-adv-x="380" d="M341 626Q358 629 362 636T363 664Q358 698 342 733Q331 754 322 760T296 766Q261 764 226 760T156 751T90 738T34 721Q35 682 31 628T20 511T4 385T-13 263T-27 158T-35 84Q-36 58 -33 44T-14 18Q-1 10
15 1T47 -12T73 -12T85 10Q93 64 103 131T127 271Q162 282 199 292T272 310Q289 313 293 321T293 349Q289 366 285 383T272 419Q258 449 228 446Q209 445 191 443T155 438Q165 484 171 525T186 600Q228 608 267 614T341 626Z" />
<glyph unicode="G" glyph-name="G" horiz-adv-x="442" d="M379 448Q381 462 382 482T384 523T385 567T382 606Q378 638 369 663T339 710Q318 733 287 748T225 769Q204 773 178 769T131 744Q97 711 69 663T20 559T-14 441T-33 320T-34 206T-14 108Q-6 80 10 57T43
19Q89 -13 142 -23Q201 -37 249 4Q285 37 315 97T366 242Q371 267 370 283T358 320Q352 331 345 344T330 368Q319 385 306 390T271 391Q253 387 228 383T180 371Q156 366 141 360T131 331Q142 280 163 258T222 238Q212 207 201 180T177 133T152 105T127 102Q113
109 106 137T98 206T102 294T119 384Q131 436 147 483T181 564T214 618T243 632Q249 630 251 619T256 593Q257 585 257 577T258 559Q258 550 258 542T260 526Q264 483 284 456T348 421Q364 419 369 425T379 448Z" />
<glyph unicode="H" glyph-name="H" horiz-adv-x="452" d="M428 664Q432 684 429 695T409 721Q392 735 374 746T338 764Q320 771 311 768T296 739Q284 673 271 587T244 410Q221 408 196 405T144 398Q157 473 168 538T189 649Q193 670 190 681T169 707Q153 721 132
733T93 752Q76 760 67 756T53 727Q44 660 34 576T14 404T-8 233T-31 83Q-36 57 -30 43T-9 17Q3 6 20 -1T54 -15Q71 -21 77 -16T86 6Q93 54 100 113T119 238Q145 244 171 249T224 260Q217 206 212 161T205 80Q199 44 214 27T257 -3Q270 -8 282 -12T302 -18T316 -14T321
5Q332 86 345 176T373 354T402 522T428 664Z" />
<glyph unicode="I" glyph-name="I" horiz-adv-x="208" d="M160 707Q144 721 123 733T84 752Q66 759 57 754T43 727Q36 690 28 637T11 524T-6 400T-21 277T-33 168T-40 83Q-42 57 -38 43T-18 17Q-4 6 12 -1T45 -15Q62 -21 68 -16T77 6Q83 50 90 104T107 218T125
338T144 455T163 562T180 649Q184 670 181 681T160 707Z" />
<glyph unicode="J" glyph-name="J" horiz-adv-x="418" d="M92 -13Q142 -31 174 -21T230 10Q259 38 282 96T323 239T356 429T381 661Q383 682 380 692T359 718Q342 732 320 742T281 760Q263 766 254 761T241 733Q236 683 229 617T213 480T194 342T171 221T146 135T120
104Q104 107 101 128T95 198Q93 272 21 314Q-1 328 -11 313T-26 266Q-31 223 -31 190T-21 124Q-10 79 15 42T92 -13Z" />
<glyph unicode="K" glyph-name="K" horiz-adv-x="443" d="M220 292Q233 262 249 229T280 166T309 109T334 65Q345 48 343 38T327 17Q319 10 307 5T284 -2Q267 -9 249 -5T213 28Q206 40 194 61T166 108T136 163T107 222Q98 160 91 106T76 6Q76 -9 71 -15T58 -20T37
-14T10 -2Q-19 10 -32 28T-42 83Q-40 117 -35 168T-22 280T-6 406T11 532T28 647T44 738Q49 760 58 765T85 763Q103 757 124 745T161 718Q178 703 182 693T181 661Q172 620 163 566T142 445Q168 484 197 527T254 612T304 690T342 752Q351 769 360 769Q371 769 383
755Q396 741 405 723T423 684Q429 667 428 650T417 608Q404 576 382 537T333 456T277 372T220 292Z" />
<glyph unicode="L" glyph-name="L" horiz-adv-x="355" d="M255 41Q275 47 277 54T274 82Q271 99 266 117T252 152Q244 170 234 175T207 179Q177 176 151 172T95 161Q105 225 117 293T141 427T165 554T188 664Q193 684 190 695T170 721T133 746T94 764Q77 771 68
767T52 740Q43 699 34 649T15 542T-4 428T-20 316T-33 213T-42 127Q-45 103 -40 86T-23 54Q-8 36 1 25T21 2Q30 -7 43 -13T85 -8Q125 4 169 16T255 41Z" />
<glyph unicode="M" glyph-name="M" horiz-adv-x="616" d="M137 457Q144 369 154 283T175 128Q178 111 181 100T188 82T197 71T209 62Q231 51 255 44Q273 39 277 45T289 72Q299 106 315 155T351 259T391 369T428 470Q419 418 411 361T397 251T386 153T379 79Q376
54 381 39T402 13Q414 3 430 -4T462 -16Q479 -22 485 -14T495 12Q499 47 505 97T520 204T538 324T556 446T574 557T590 649Q595 675 590 689T567 715Q541 731 514 742T462 762Q442 770 429 769T406 755T387 720T364 661Q351 629 337 592T309 516T282 441T259 373Q250
460 245 510T236 588T233 625T232 642Q230 657 228 669T222 691T209 709T187 724Q165 735 144 743T91 757Q71 761 61 754T45 721Q38 684 30 632T13 521T-5 400T-21 278T-33 167T-40 78Q-42 52 -37 38T-16 12Q-3 2 12 -5T43 -18Q59 -23 65 -18T74 6Q78 48 84 101T99
214T117 335T137 457Z" />
<glyph unicode="N" glyph-name="N" horiz-adv-x="468" d="M258 314Q251 359 244 407T231 500T219 582T211 643Q207 673 200 688T174 714Q152 728 132 737T90 754Q73 760 62 754T46 725Q38 683 29 627T12 509T-5 383T-20 262T-32 160T-39 88Q-42 62 -38 48T-19
22Q-5 8 11 2T44 -11Q61 -18 67 -14T76 8Q80 44 86 91T100 191T116 301T133 415Q141 368 150 321T168 230T186 146T205 77Q217 34 246 17Q262 9 277 3T309 -9Q345 -21 348 17Q357 86 368 171T392 344T416 512T440 655Q444 676 441 690T421 719Q400 736 388 742T358
754T331 755T317 727Q302 642 286 536T258 314Z" />
<glyph unicode="O" glyph-name="O" horiz-adv-x="463" d="M340 704Q320 725 290 739T226 761Q201 766 173 756T124 724Q76 671 44 593T-3 429T-17 259T6 109Q15 81 32 59T66 23Q88 6 114 -2T166 -15Q204 -21 233 -11T289 31Q326 82 350 152T386 299T400 451T392
589Q386 624 375 652T340 704ZM247 625Q259 620 265 590T271 518T268 428T256 338Q247 285 234 240T207 164T177 117T148 109Q133 116 126 145T118 214T121 302T135 391Q144 432 158 476T187 554T219 609T247 625Z" />
<glyph unicode="P" glyph-name="P" horiz-adv-x="472" d="M127 210Q166 225 204 246T278 292T342 347T392 406Q416 442 430 482T434 574T405 660T365 724Q339 757 301 761T219 753T133 716T56 668Q50 664 45 626T33 529T21 403T9 270T-3 154T-17 79Q-22 53 -17
37T1 11T29 -6T63 -20Q80 -25 86 -20T96 1Q102 52 110 104T127 210ZM156 382Q166 437 175 486T194 581Q216 594 237 600T276 607T304 603T317 588Q322 570 314 543T286 487T233 430T156 382Z" />
<glyph unicode="Q" glyph-name="Q" horiz-adv-x="462" d="M367 38Q357 53 349 69T330 102Q355 154 370 217T393 346T400 475T391 589Q385 624 374 652T340 704Q320 725 290 739T226 761Q201 766 173 756T124 724Q76 671 44 593T-3 429T-17 259T6 109Q15 81 32
59T66 23Q88 6 114 -3T166 -15Q190 -17 212 -15T253 0Q256 -3 258 -6T265 -14Q287 -42 317 -34Q329 -30 341 -24T364 -8Q377 1 377 11T367 38ZM177 118Q162 101 148 109Q137 115 130 133T120 177T117 235T121 302Q129 369 145 434T187 554Q199 581 211 599T233
623T252 622T265 590Q269 569 270 539T271 474T265 404T255 338Q250 303 243 272T226 215Q208 210 194 204T168 190Q145 173 161 146Q165 139 168 132T177 118Z" />
<glyph unicode="R" glyph-name="R" horiz-adv-x="485" d="M124 228Q141 198 161 168T203 109T244 57T279 17Q302 -4 320 -6T352 -3Q364 0 372 2T392 19Q402 30 403 40T390 67Q373 87 354 113T316 166T278 222T245 274Q315 319 364 370T432 482Q445 517 434 574Q423
625 405 660T365 724Q339 757 305 764T232 763T155 734T79 691Q68 684 58 644T38 544T20 416T4 281T-8 161T-17 79Q-19 53 -15 38T1 11Q13 1 27 -3T58 -14Q74 -19 80 -14T89 7Q97 61 105 115T124 228ZM194 584Q217 599 238 605T276 611Q311 611 319 588Q323 574
314 548T283 493T228 435T153 386Q165 443 174 492T194 584Z" />
<glyph unicode="S" glyph-name="S" horiz-adv-x="401" d="M-48 195Q-61 185 -61 167Q-61 150 -34 113Q17 38 67 8T171 -20Q211 -19 239 -5T287 29T317 73T335 118Q349 160 334 194T289 259T223 321T159 388Q138 415 139 450T152 518T182 579T216 617Q232 633 235
622T237 587T229 532T222 480Q216 408 302 366Q317 358 325 362T339 385Q345 404 350 430T360 483T368 538T373 587Q372 612 368 641T338 699Q320 721 293 739T240 769Q223 776 207 777T178 775T153 766T135 752Q114 735 93 710T54 655T23 594T3 534Q-15 465 0
408T49 311Q72 283 103 255T159 203T199 159T202 129Q184 108 144 122T49 186Q30 204 3 206T-48 195Z" />
<glyph unicode="T" glyph-name="T" horiz-adv-x="443" d="M405 634Q423 636 426 642T425 668Q420 688 412 709T391 748Q385 758 377 762T351 767Q317 765 274 761T185 751T97 737T19 720Q8 716 4 710T6 686Q12 669 21 643T43 600Q54 583 63 580T88 581Q99 585
115 588T149 595Q139 538 129 468T109 328T93 193T83 82Q77 44 93 26T137 -4Q151 -10 162 -15T182 -21T196 -17T202 2Q211 73 222 152T247 311T273 470T298 620Q327 624 354 627T405 634Z" />
<glyph unicode="U" glyph-name="U" horiz-adv-x="451" d="M0 102Q10 74 24 55T54 22Q92 -10 152 -16Q182 -19 205 -13T252 11Q284 39 308 98T352 240T387 429T416 656Q419 677 416 688T396 713Q380 725 361 737T325 756T297 757T284 730Q278 680 270 613T250 474T226
335T199 214T168 133T133 110Q119 116 114 144T111 215T120 311T137 418T158 526T180 622Q191 670 159 702Q144 716 128 727T95 745Q77 753 68 749T53 722Q35 645 18 558T-10 386T-20 227T0 102Z" />
<glyph unicode="V" glyph-name="V" horiz-adv-x="466" d="M440 647Q450 682 437 702T400 740Q389 749 378 756T358 764T341 761T329 742Q294 617 256 479T176 209Q170 276 165 341T156 467T148 578T141 670Q136 721 99 739Q83 747 69 750T38 754Q21 754 17 746T13
716Q19 550 30 399T60 119Q64 96 76 68T112 22Q134 6 154 -4T197 -24T232 -28T255 4Q269 45 286 98T321 211T358 333T392 453T420 561T440 647Z" />
<glyph unicode="W" glyph-name="W" horiz-adv-x="641" d="M118 254Q120 308 123 366T129 478T136 573T140 636Q142 658 139 682T118 721Q103 733 86 739T48 752Q30 757 23 750T14 719Q11 674 9 619T5 505T2 386T1 267Q1 210 2 159T6 67Q7 39 13 26T35 4Q70 -13
110 -24Q125 -28 134 -25T152 0Q160 25 172 62T200 143T231 231T262 318Q262 286 264 251T268 183T273 120T278 70Q280 49 288 32T315 4Q334 -3 347 -9T384 -22Q406 -28 417 -23T435 2Q446 43 460 95T491 204T524 322T559 438T591 546T620 635Q626 655 625 675T610
713Q584 738 556 755Q537 765 529 763T512 736Q503 709 486 657T449 539T407 401T366 262Q368 315 370 369T374 471T377 553T379 602Q379 627 376 638T356 659Q340 667 329 673T300 684T275 684T259 662Q249 641 233 596T197 493T157 372T118 254Z" />
<glyph unicode="X" glyph-name="X" horiz-adv-x="472" d="M201 545Q237 610 267 664T321 754Q332 771 344 771Q356 771 370 760Q384 746 397 726T420 689Q431 668 429 650T417 614Q387 563 347 494T261 348Q289 257 314 174T361 25Q369 6 366 -3T348 -16Q315 -20
278 -16Q260 -13 250 -3T229 32Q221 49 206 95T169 206Q134 144 104 87T51 -12Q34 -42 8 -17Q-5 -5 -17 12T-41 46T-52 77Q-52 91 -42 113Q-17 167 22 243T108 400Q94 444 81 487T55 570T33 644T16 703Q10 728 14 737T35 749Q43 750 52 750Q61 750 69 750Q77 750
86 750T106 748Q126 745 137 731T156 695Q165 663 176 625T201 545Z" />
<glyph unicode="Y" glyph-name="Y" horiz-adv-x="434" d="M404 644Q412 669 411 683T399 714Q389 726 376 740T349 763T324 771T307 751Q278 679 247 606T184 460Q168 532 154 595T126 706Q118 731 110 743T85 760T51 764T17 761Q1 758 -2 751T0 722Q9 678 20
625T45 514T71 400T96 288Q88 225 83 171T72 74Q70 48 74 35T93 7Q107 -2 124 -10T158 -26Q175 -32 181 -28T191 -3Q198 51 206 107T225 227Q252 284 280 345T332 462T376 565T404 644Z" />
<glyph unicode="Z" glyph-name="Z" horiz-adv-x="375" d="M198 601Q163 541 127 473T57 338T-3 214T-47 116Q-57 93 -50 75T-33 43Q-19 25 -9 13T12 -11Q23 -22 36 -27T76 -23Q116 -9 163 3T253 28Q270 31 275 39T275 67Q272 84 266 101T252 138Q238 170 203 164Q177
159 153 154T105 140Q166 255 230 372T355 595Q366 614 366 630T362 665Q358 679 354 695T342 732Q335 749 327 756T301 762Q269 760 234 757T163 748T94 736T34 721Q23 716 20 710T21 685Q27 667 37 643T53 605Q64 587 77 582T107 581Q128 587 150 591T198 601Z"
/>
<glyph unicode="[" glyph-name="bracketleft" horiz-adv-x="304" d="M209 35Q214 16 210 8T188 0Q168 -5 143 -11T95 -23Q76 -28 63 -24T39 -8Q29 1 21 12T2 34Q-7 49 -11 66T-13 112Q-7 174 3 253T25 414T52 575T79 716Q85 747 114 752Q141 757 169 759T222 762Q238
763 247 754T264 728Q272 710 276 695T285 662Q290 643 285 636T264 626Q247 624 227 621T187 616Q176 563 164 501T141 374T120 245T102 124Q113 125 123 126T145 128Q175 133 189 101Q197 84 200 68T209 35Z" />
<glyph unicode="\" glyph-name="backslash" horiz-adv-x="358" d="M106 768Q88 773 72 774T39 774Q4 772 12 731Q18 692 29 634T55 508T85 369T116 231T146 111T170 22Q178 -2 186 -14T210 -29Q235 -35 265 -30Q282 -28 286 -20T285 5Q275 48 263 107T236 233T208
370T182 505T159 626T143 721Q138 744 132 753T106 768Z" />
<glyph unicode="]" glyph-name="bracketright" horiz-adv-x="318" d="M261 631Q264 649 263 661T250 691Q242 705 234 716T218 739Q208 753 199 758T172 761Q139 758 110 754T57 744Q42 741 38 731T36 705T44 673T58 640Q65 622 74 617T101 613Q109 614 117 615T133
618Q123 564 112 501T90 373T69 243T52 125Q33 121 13 115T-23 104Q-52 93 -37 61Q-30 44 -24 29T-10 1Q-2 -11 7 -16T34 -18Q55 -13 77 -9T123 0Q145 1 151 10T160 34Q169 95 181 174T206 334T234 494T261 631Z" />
<glyph unicode="^" glyph-name="asciicircum" horiz-adv-x="447" d="M328 353Q342 352 346 358T347 382Q341 410 334 446T318 523T303 604T291 683Q288 707 284 717T269 742Q259 753 248 763T224 784Q213 792 204 792T182 774Q159 745 135 710T90 640T50 573T20
517Q6 491 21 463Q30 446 38 434T56 410Q66 397 73 397Q82 397 89 410Q112 448 140 493T200 584Q211 530 221 482T240 402Q251 370 275 362Q290 357 303 356T328 353Z" />
<glyph unicode="_" glyph-name="underscore" horiz-adv-x="430" d="M2 -220Q-12 -220 -18 -213T-20 -187Q-18 -173 -16 -159T-10 -130Q-6 -112 1 -105T24 -98H470Q483 -97 489 -101T496 -115T495 -135T490 -158T486 -180T480 -201T468 -216T449 -220H2Z" />
<glyph unicode="`" glyph-name="grave" horiz-adv-x="395" d="M87 972Q103 958 126 941T175 907T230 874T286 845Q308 833 343 859Q343 858 346 862T352 873T354 888T343 905Q297 932 250 964T166 1032Q156 1042 143 1042T110 1027Q99 1020 94 1007T87 972Z" />
<glyph unicode="a" glyph-name="a" horiz-adv-x="383" d="M217 62Q219 52 219 49Q221 23 228 13T250 -5Q264 -12 277 -13T305 -14Q325 -14 330 -7T336 21Q333 77 331 138T326 261T323 379T322 485Q322 504 322 520T323 552V558Q323 576 317 588T294 609Q291 611
288 611T281 614Q262 621 240 627T185 636H178Q155 636 144 624T125 595Q104 546 80 481T33 346T-12 209T-48 90Q-50 81 -51 73T-52 59Q-52 44 -47 37T-34 21L-29 15Q-24 10 -18 7T-5 -1Q0 -3 1 -4T4 -6Q10 -9 14 -11T24 -13Q39 -13 47 11Q49 19 52 26T58 42Q63
60 68 78T81 116Q101 123 127 128T185 141Q191 142 197 143T210 146Q212 123 213 102T217 62ZM199 447Q199 408 200 368T203 286Q185 284 169 282T136 276Q153 323 168 366T199 447Z" />
<glyph unicode="b" glyph-name="b" horiz-adv-x="370" d="M301 336H300L310 346Q329 369 341 397T354 460Q354 467 354 473T352 485Q345 520 333 547T302 597Q285 618 260 627T204 636Q181 636 156 631T106 618T58 598T17 573Q15 516 8 448T-7 312Q-13 261 -18
214T-26 127Q-27 122 -27 116Q-27 111 -27 107Q-27 90 -23 80T-11 56Q-9 54 -7 50T-6 48Q8 29 20 18T50 -5Q71 -23 88 -23Q94 -23 101 -21T119 -15Q138 -8 160 3T203 28T244 59T278 95Q294 115 303 137T312 188Q312 193 312 198Q312 203 311 208Q306 234 295 259T266
301Q277 310 285 319T301 336ZM138 398Q142 418 144 437T152 474Q171 486 188 491T218 497Q233 497 236 488V486Q236 476 229 462T209 431T176 398T132 369Q134 377 135 384T138 398ZM154 237Q180 237 185 222V223Q185 221 185 220T186 218Q186 197 160 172T92
128Q94 144 97 159T102 190Q104 198 104 207T107 225Q121 232 132 234T154 237Z" />
<glyph unicode="c" glyph-name="c" horiz-adv-x="342" d="M253 184Q236 191 221 191Q186 191 162 154Q130 103 113 103Q111 103 110 104Q102 108 98 129T94 182Q94 211 97 244T108 310Q114 340 124 374T145 438T167 487T187 509Q193 506 194 491T195 458V445Q195
442 195 438T196 430Q201 394 217 373T269 341Q272 340 275 340T283 339Q299 339 303 348T310 369Q313 386 315 411T317 461Q317 470 317 479Q317 488 316 496Q314 523 308 544T279 587Q259 604 230 619T173 638H164Q146 638 126 631T86 601Q58 569 36 523T-3 425T-27
316T-36 209Q-36 172 -32 139T-16 79L-17 80Q-10 57 6 38T41 8L49 4H48Q63 -4 81 -12T122 -22Q125 -22 128 -22T134 -23Q158 -23 180 -13T218 12Q234 29 249 54T273 108Q276 118 278 127T280 145Q280 171 253 184ZM188 509Q189 509 189 509T191 508L187 509H188Z"
/>
<glyph unicode="d" glyph-name="d" horiz-adv-x="391" d="M17 576L-28 135Q-29 128 -29 121Q-29 115 -29 110Q-29 87 -24 75T-10 51V52Q-8 48 -6 46Q8 29 19 18T46 -5Q67 -21 86 -21Q99 -21 113 -13Q174 12 219 55T294 152T338 263T353 376Q353 411 348 443T330
503Q301 575 256 603T162 631Q122 631 85 617T21 583L17 576ZM152 480Q157 482 163 483T174 484Q190 484 201 475T217 452Q224 433 224 402V392Q223 365 216 332T193 264T153 198T95 140Q109 230 122 314T152 480Z" />
<glyph unicode="e" glyph-name="e" horiz-adv-x="308" d="M26 579L-35 117V106Q-35 86 -30 72T-17 47Q-6 33 1 24T19 5Q25 -2 34 -7T55 -12Q60 -12 67 -11T82 -6L81 -7Q113 2 148 12T217 32Q231 37 236 42T242 60Q242 65 242 67T240 75Q238 79 237 84T234 94L235
93Q233 101 230 110T220 135Q210 163 184 163Q182 163 179 163T174 162Q151 160 132 158T93 150L94 152Q96 167 99 182T105 215Q129 223 154 229T205 242Q210 243 214 244T224 246Q237 250 243 255T249 273Q249 280 245 291L246 290Q243 305 240 318T228 348V347Q222
364 213 370T189 376H184Q170 375 158 375Q147 375 136 373Q141 393 145 412T153 451Q155 459 156 466T159 482Q181 487 200 490T240 496Q249 498 258 498T276 501Q291 503 297 509T303 530V539Q302 541 301 546T299 554L300 553Q298 564 295 574T286 600V599Q276
633 245 633H241Q186 630 131 616T33 587L26 579Z" />
<glyph unicode="f" glyph-name="f" horiz-adv-x="304" d="M275 501Q289 503 295 508T302 527Q302 532 302 535T300 542Q298 557 294 571T283 600Q273 620 265 626T241 633H236Q179 630 121 620T17 594V576Q17 545 14 504T5 417T-6 324T-19 232Q-26 182 -31 141T-38
77V65Q-38 47 -34 36T-15 14Q-2 6 15 -2T50 -11Q61 -11 69 -5T78 17Q79 24 80 30T82 45Q87 83 94 127T110 219Q139 228 166 234T220 248Q234 250 240 255T247 274Q247 281 243 292L244 291Q241 305 237 319T225 354Q213 377 185 377H182Q170 376 159 376T137 373Q139
384 141 395T145 417Q148 434 151 450T157 481Q175 485 191 487T225 493Q238 495 250 497T275 501Z" />
<glyph unicode="g" glyph-name="g" horiz-adv-x="354" d="M313 367Q315 382 316 405T318 452Q318 464 318 475T316 496Q313 524 305 545T278 585H279Q261 605 235 617T182 635Q177 636 172 636T160 637Q144 637 128 632T98 612Q67 582 42 536T-1 437T-28 326T-38
216Q-38 182 -34 151T-20 93H-21Q-13 70 0 50T28 17Q70 -11 112 -18Q124 -21 137 -21Q175 -21 205 5Q266 60 303 202Q306 217 306 230Q306 252 295 271V270Q290 280 285 290T272 310L273 309Q265 323 255 328T231 334Q227 334 223 334Q219 334 215 333T207 332T198
330Q190 328 175 325T141 316Q139 315 137 315Q135 315 133 314L134 315Q123 313 115 311T102 304Q103 307 105 315Q114 353 125 388T148 449T171 491T190 507Q191 506 191 501T194 489Q194 487 194 486T195 483Q196 477 196 470Q196 464 196 457Q196 450 196 444T198
432V430Q202 392 220 369T276 337Q278 337 280 337T285 336Q298 336 304 343T313 366V367ZM164 190Q150 152 136 126T110 100Q107 100 106 101Q97 106 93 129T88 185Q88 205 89 226T95 270Q104 230 120 211T164 190Z" />
<glyph unicode="h" glyph-name="h" horiz-adv-x="362" d="M352 539Q353 544 353 548T354 557Q354 568 349 576T333 594Q318 607 303 616T273 631V630Q267 632 262 633T254 635Q243 635 237 628T227 603Q219 562 211 511T195 403Q193 389 191 375T186 347Q172 346
157 344T127 340Q129 351 131 360T135 381Q143 425 149 462T161 527Q162 532 162 536T163 546Q163 557 158 565T141 584L142 583Q128 595 111 605T78 621Q68 626 59 626Q49 626 43 619T32 595Q27 560 22 517T12 429Q7 383 2 336T-10 243T-22 155T-35 78Q-36 73
-36 69T-37 60Q-37 44 -31 34T-13 16Q-3 8 9 3T32 -8Q34 -9 35 -9T39 -11Q44 -13 48 -14T56 -15Q67 -15 72 -8T79 14Q81 25 82 36T85 60Q89 89 93 122T103 191Q116 194 128 196T153 202Q157 203 167 205Q162 166 159 134T154 76Q153 71 153 61Q153 35 167 22T202
-1Q204 -2 204 -2Q205 -2 207 -3Q218 -8 227 -11T244 -15Q266 -15 267 13Q276 78 286 150T308 292T331 426T352 539Z" />
<glyph unicode="i" glyph-name="i" horiz-adv-x="166" d="M135 583Q121 595 104 605T70 621H71Q63 625 53 625Q41 625 35 618T24 594Q18 564 12 522T-1 431T-15 331T-27 233T-37 144T-42 76V64Q-42 46 -38 36T-20 16Q-9 7 4 1T32 -11Q40 -15 48 -15Q59 -15 64
-9T72 13Q79 66 89 136T110 279T133 417T154 527Q155 532 155 536T156 545Q156 557 151 564T135 583Z" />
<glyph unicode="j" glyph-name="j" horiz-adv-x="334" d="M71 -9Q98 -19 119 -19Q142 -19 159 -11T191 11Q215 34 234 81T268 197T294 351T315 538Q315 542 315 545T316 551Q316 564 312 572T294 592V591Q280 604 262 613T229 627Q221 631 211 631Q187 631 183
597Q179 558 174 507T161 401T147 293T131 198T114 130T97 103Q90 105 89 120T86 168Q85 233 22 270Q17 274 12 275T3 276Q-12 276 -19 263T-31 226Q-34 196 -34 170Q-34 135 -27 107Q-17 69 4 38T71 -9Z" />
<glyph unicode="k" glyph-name="k" horiz-adv-x="354" d="M343 492Q353 516 353 534Q353 546 347 561V560Q333 598 313 621H314Q302 635 288 635Q274 635 265 616V617Q256 601 242 579T212 532T178 480T142 426Q139 421 136 418T131 410Q131 411 131 411T132 414Q138
450 143 481T155 537Q156 542 156 545T157 554Q157 565 152 572T136 591Q122 605 104 615T71 630L72 629Q67 631 63 632T54 634Q33 634 25 602Q19 572 13 530T-1 438T-15 336T-28 235T-38 145T-44 76V66Q-44 38 -32 24T4 -1Q7 -2 12 -4T18 -6Q36 -16 49 -16Q70
-16 71 13Q73 27 75 41T79 72Q83 109 91 153Q108 118 125 88T154 39Q156 35 158 32T162 26Q174 8 185 1T209 -6Q217 -6 230 -1L229 -2Q238 0 249 4T268 16Q276 22 280 28T285 42Q285 50 275 67H276Q267 81 256 101T233 145T209 194T187 242Q209 272 232 305T276
371T314 435T343 492Z" />
<glyph unicode="l" glyph-name="l" horiz-adv-x="284" d="M207 33Q221 37 227 41T233 57Q233 62 232 67T229 78Q224 105 211 136Q198 164 175 164Q173 164 170 164Q168 164 163 162L165 163Q144 161 126 159T88 152Q96 201 105 253T124 357T142 454T160 539V538Q163
548 163 558Q163 577 142 595Q128 607 110 616T78 631L79 630Q71 634 61 634Q50 634 43 628T32 604Q21 555 9 489T-13 355T-32 222T-44 113Q-44 110 -44 107T-45 100Q-45 83 -40 71T-26 47Q-22 42 -19 38T-12 30Q-6 23 -1 17T10 5H9Q14 -2 21 -7T43 -12Q55 -12
72 -5L71 -6Q103 3 138 13T207 33Z" />
<glyph unicode="m" glyph-name="m" horiz-adv-x="493" d="M130 110Q135 80 141 69T162 51Q178 41 201 35Q204 34 207 34T215 33Q228 33 232 40T241 65Q247 84 255 110T273 165T294 225T316 288Q307 224 301 166T293 74V75Q292 70 292 60Q292 29 316 12Q326 4 342
-2T374 -15H379Q392 -15 397 -7T406 18Q411 60 420 127T441 267T463 410T482 527V526Q484 531 484 536Q484 542 484 548Q484 563 478 572T459 590Q436 604 414 613T373 629Q356 635 347 635Q324 635 312 613T282 542V543Q265 501 247 452T212 356Q206 409 203 440T199
488T197 512T196 525Q193 551 186 567T154 598Q135 608 118 614T75 626Q72 627 68 627Q65 627 62 627Q46 627 39 619T26 589Q20 559 14 518T0 429T-14 332T-26 234T-36 144T-42 72V60Q-42 41 -37 31T-19 12Q5 -6 31 -14Q34 -15 37 -15T45 -16Q57 -16 62 -9T69 14Q74
68 84 142T106 294Q111 243 117 196T130 110Z" />
<glyph unicode="n" glyph-name="n" horiz-adv-x="374" d="M179 525Q176 552 169 566T144 590V589Q129 600 114 606T84 618Q82 619 80 620T75 622H76Q68 626 59 626Q36 626 27 592Q20 559 13 514T-1 419T-14 318T-26 222T-36 139T-41 81V82Q-42 77 -42 73Q-42 69
-42 65Q-42 48 -37 39T-21 20Q-11 10 1 4T28 -7Q31 -8 31 -8T32 -8Q43 -12 49 -12Q61 -12 65 -6T71 14Q75 47 81 91T94 185Q97 207 100 230T107 276Q118 216 130 162T154 69V70Q159 50 169 36T192 15Q206 8 218 3T244 -7L243 -6Q248 -8 251 -8T259 -9Q286 -9 288
23Q290 34 291 45T294 69Q301 124 310 186T328 311T345 431T362 532Q363 537 363 542T364 552Q364 564 360 573T343 593Q334 601 327 606T315 614T303 619T289 623L290 622Q282 626 273 626Q250 626 244 594Q234 540 224 475T204 338Q196 395 189 446T179 525Z"
/>
<glyph unicode="o" glyph-name="o" horiz-adv-x="370" d="M279 580Q261 599 236 611T183 629Q180 630 176 630Q172 630 168 630Q148 630 128 622T92 596Q64 565 43 523T6 432T-16 333T-24 233Q-24 195 -20 160T-4 94H-5Q3 71 17 52T47 20Q66 6 88 -1T132 -12Q137
-13 142 -13T154 -14Q202 -14 239 29Q263 62 280 104T308 193T324 290T330 386Q330 438 324 482Q319 513 309 536T279 580ZM194 501Q201 499 204 475T207 415Q207 383 204 348T195 282Q189 245 181 213T163 156T144 119T125 105Q123 105 122 106Q112 111 108 134T104
192Q104 222 107 255T118 321Q124 351 134 383T154 441T175 484T194 501Z" />
<glyph unicode="p" glyph-name="p" horiz-adv-x="378" d="M322 329Q338 353 349 379T361 437Q361 446 360 454T357 471Q347 514 332 542T300 595Q286 614 267 622T224 630Q201 630 177 623T128 605T81 579T39 552Q34 547 30 527T21 476T13 406T6 326Q3 287 -1
249T-8 178T-16 118T-24 77Q-25 72 -25 68T-26 56Q-26 40 -21 30T-7 12T13 -1T36 -11Q38 -12 41 -13T47 -15H46Q51 -17 55 -17T62 -18Q74 -18 79 -12T87 8Q92 47 97 88T111 171Q141 183 172 200T230 237T281 281T322 329ZM164 469Q195 486 223 486Q242 486 243
482Q245 477 245 474Q245 471 245 469Q245 456 238 439T218 402T184 365T138 333Q145 370 151 404T164 469Z" />
<glyph unicode="q" glyph-name="q" horiz-adv-x="370" d="M302 46Q300 50 296 57T287 72V71Q284 76 282 81T275 93Q289 123 299 158T316 230T326 306T330 380Q330 409 329 434T323 483Q318 512 309 535T279 580Q261 599 236 611T183 629Q180 630 176 630Q172 630
168 630Q148 630 128 622T92 596Q64 565 43 523T6 432T-16 333T-24 233Q-24 195 -20 160T-4 94H-5Q3 71 17 52T47 20Q65 6 87 -2T132 -12Q137 -13 142 -13Q147 -13 153 -13Q179 -13 200 -2Q201 -3 201 -3Q201 -4 202 -5L204 -7Q219 -28 244 -28Q252 -28 256 -27Q267
-24 277 -19T298 -3L296 -4Q312 5 312 20Q312 32 302 46ZM125 105Q123 105 122 106H123Q113 112 109 135T104 191Q104 219 107 251Q114 304 126 355T159 449Q169 472 178 486T194 501Q199 501 202 480Q207 452 207 417Q207 385 204 350T194 282Q189 255 185 232T174
191Q160 186 149 182T128 170Q113 158 113 143Q113 133 120 122Q121 120 124 115T126 112Q127 111 127 110T130 106Q128 105 125 105ZM134 98V99Q135 97 135 96Q135 96 134 98Z" />
<glyph unicode="r" glyph-name="r" horiz-adv-x="388" d="M216 17Q230 4 241 -1T264 -6Q268 -6 274 -4T287 0Q286 -1 290 -1Q298 1 305 4T322 19Q332 31 332 42Q332 55 320 70Q306 85 292 104T263 145T235 187T209 226Q263 262 301 303T356 393L355 392Q359 401
360 410T361 431Q361 452 357 471Q347 514 332 542T300 595Q283 617 263 625T219 634Q180 634 138 614T57 571Q49 565 42 540T27 477T14 393T1 299T-10 206T-18 127Q-20 110 -21 97T-24 74V61Q-24 43 -20 32T-6 12Q2 4 12 1T34 -7Q36 -7 38 -8T42 -10Q47 -12 50
-12T57 -13Q69 -13 74 -7T81 14L87 53Q91 79 95 106T104 163Q131 120 162 80T216 17ZM221 489Q242 489 247 474Q246 476 246 472Q246 460 239 444T217 408T183 371T136 337Q142 367 148 394Q152 414 155 433T164 471Q180 481 194 485T221 489Z" />
<glyph unicode="s" glyph-name="s" horiz-adv-x="321" d="M-43 176Q-59 167 -59 146Q-59 127 -34 96Q7 35 48 10T133 -16H138Q173 -15 197 -3T238 27T265 65T280 103Q285 120 285 136Q285 175 260 205T200 266Q183 282 167 298T136 332Q122 350 122 378Q122 397
128 417T143 454T162 484T180 504L182 506V504Q182 494 180 480T176 451Q174 438 172 426T169 400V393Q169 362 186 340T238 299Q245 294 256 294Q273 294 283 319Q288 335 292 356T300 401T307 447T311 487Q310 508 306 534T281 585Q265 603 243 618T198 645Q188
650 179 651T162 652Q142 652 127 645T103 630Q85 615 67 594T34 548T8 497T-8 446V447Q-15 420 -15 388Q-15 349 -2 316T31 258Q46 240 63 224T98 191Q121 170 138 153T156 125L154 123Q146 115 138 115Q103 115 46 169Q36 179 24 183T-3 188Q-14 188 -24 186T-44
176H-43Z" />
<glyph unicode="t" glyph-name="t" horiz-adv-x="354" d="M326 507Q340 509 346 514T352 530Q352 538 352 541T350 549Q346 564 340 580T321 614V613Q314 624 306 629T280 634Q252 632 217 629T146 621T76 610T15 597Q4 592 -2 588T-8 573Q-8 567 -4 556H-5Q0
542 7 521T26 484L25 485Q33 472 39 467T57 462Q66 462 74 466Q78 468 85 469T103 472H106Q98 427 91 373T76 265T64 162T56 77V78Q55 74 55 70Q55 66 55 62Q55 35 69 22T106 -2Q108 -3 109 -3T113 -5Q123 -10 131 -13T147 -17Q158 -17 164 -11T172 11Q179 65 187
124T205 243T225 364T244 479Q244 483 245 487T247 497Q255 498 264 498T281 501Q292 503 303 504T325 507H326Z" />
<glyph unicode="u" glyph-name="u" horiz-adv-x="361" d="M-9 89Q-1 63 11 47T36 20Q69 -9 121 -13Q125 -13 129 -13T137 -14Q157 -14 174 -8T208 11Q235 35 255 83T291 198T319 351T343 534V533Q344 538 344 542Q344 546 344 550Q344 561 340 569T323 588Q305
602 284 615T246 628Q218 628 217 595Q212 557 206 506T192 401T175 294T155 200T134 133T111 107H110Q103 110 101 125T98 163Q98 196 103 239T117 330T135 423T154 506L153 505Q155 512 155 516T156 526Q156 557 134 579Q121 591 108 600T80 615Q70 620 61 620Q50
620 43 614T32 590Q22 546 12 497T-7 398T-20 299T-26 206Q-26 171 -22 142T-9 89Z" />
<glyph unicode="v" glyph-name="v" horiz-adv-x="373" d="M362 526Q365 538 365 549Q365 570 355 584T326 610Q314 619 304 625T282 632Q261 632 253 607Q248 587 242 567T231 527Q211 454 190 379T146 229Q140 304 136 372T127 496Q126 510 125 523T123 547Q118
594 83 610H84Q70 618 58 620T30 623Q10 623 5 614T0 583Q5 448 14 327T38 103Q41 83 51 59T84 20Q101 6 117 -2T154 -18Q166 -24 177 -24Q190 -24 198 -16T213 9Q224 42 238 85T267 177T296 274T324 370T347 457T362 526Z" />
<glyph unicode="w" glyph-name="w" horiz-adv-x="513" d="M117 441Q119 467 120 486T122 518Q122 522 122 526T123 535Q123 552 119 568T100 595Q87 606 73 611T40 622Q37 623 35 623T28 624Q14 624 9 615T1 586Q-1 550 -3 506T-6 415T-8 319T-9 224Q-9 178 -8
137T-5 63Q-3 37 2 25T23 4Q37 -3 53 -9T86 -19Q89 -20 92 -20T100 -21Q110 -21 117 -14T133 11Q138 27 145 50T162 99T181 154T201 212Q203 170 206 130T212 65Q214 46 221 30T244 6Q246 4 254 1T270 -5Q277 -8 287 -11T308 -19Q310 -20 312 -20Q314 -20 322 -20Q347
-20 357 9Q370 58 389 127T429 268T470 408T507 522Q508 527 509 532T510 545Q510 568 496 586Q473 609 449 623Q436 630 427 630Q409 630 401 602Q395 584 384 552T361 480T334 393T305 300Q306 314 306 327T308 353Q310 403 311 440T313 492Q313 515 310 525T289
546L283 549Q272 554 263 558T242 567L244 566Q238 568 235 568T228 569Q208 569 198 544Q191 528 181 501T158 439T133 365T107 287Q109 328 112 367T117 441Z" />
<glyph unicode="x" glyph-name="x" horiz-adv-x="378" d="M136 564Q128 587 117 601T86 618H83Q75 619 69 619T55 620H42Q37 620 33 620Q29 620 26 619Q12 617 6 612T0 592Q0 581 3 569Q9 549 16 523T33 465T53 400T74 331Q39 267 8 207T-43 104Q-52 83 -52 72Q-52
63 -47 52T-34 29T-17 7T-1 -11Q11 -23 24 -23Q40 -23 50 -5Q60 12 70 32T93 75Q102 92 112 110T133 149Q135 141 137 137H136Q160 61 174 32Q185 9 194 -1T220 -13Q228 -14 235 -14T251 -15Q260 -15 267 -15T281 -13Q304 -8 304 13Q304 22 298 34L299 33Q282 85
262 150T220 287Q255 348 287 402T343 496Q353 513 353 534Q353 550 345 565T326 596T303 625Q289 637 275 637Q259 637 248 618H249Q229 588 208 552T163 473Q155 499 148 521T136 564Z" />
<glyph unicode="y" glyph-name="y" horiz-adv-x="347" d="M332 522Q339 542 339 553Q339 571 327 587Q321 594 313 603T295 619T277 632T261 637Q252 637 246 632T236 613Q231 603 228 594T220 574Q203 532 186 492T150 409Q139 457 130 496T113 570Q104 596 96
609T71 627Q57 632 42 632Q35 632 29 632T18 630Q16 630 15 630T12 629Q-2 627 -7 622T-13 604Q-13 595 -10 585V586Q1 528 17 455T51 307Q55 290 58 273T66 239Q61 205 59 174T53 115Q51 103 51 92T48 70V71Q47 66 47 62Q47 58 47 54Q47 39 51 30T66 10Q81 0 96
-7T122 -20Q127 -22 131 -23T139 -24Q150 -24 155 -18T163 6Q168 49 174 94T190 190Q212 236 234 285T276 378T311 460T333 522H332Z" />
<glyph unicode="z" glyph-name="z" horiz-adv-x="300" d="M-47 107Q-52 96 -52 84Q-52 68 -47 59T-36 40Q-25 26 -16 15T3 -6Q11 -14 19 -18T38 -23Q43 -23 49 -22T65 -17H64Q83 -10 111 -3T168 12Q177 14 187 17T205 22H204Q219 25 225 31T232 50Q232 53 232
56T229 67L230 66Q228 79 223 93T211 124Q197 152 170 152Q168 152 165 152T160 151Q146 148 133 146T104 138Q151 226 199 313T293 481Q304 499 304 519Q304 527 303 532T300 544Q299 546 299 550Q296 561 291 575T281 604Q274 618 266 624T240 630Q214 628 185
626T127 619T72 609T26 598Q16 593 10 588T4 572Q4 566 8 555T17 530T28 503Q30 499 31 496T33 490Q42 476 53 470T75 464Q84 464 88 465Q96 467 105 469T123 473Q127 474 137 476Q111 429 84 377T32 275T-13 181T-47 107Z" />
<glyph unicode="{" glyph-name="braceleft" horiz-adv-x="339" d="M245 35Q250 16 246 8T224 0Q203 -5 179 -11T131 -23Q110 -30 98 -25T74 -8Q65 1 56 12T37 34Q24 49 20 66T19 112Q24 150 29 193T42 287Q34 288 29 293T16 310Q6 327 -1 350T-14 391Q-22 423
0 430Q12 435 29 438T66 445Q79 521 91 590T114 716Q118 732 125 741T150 752Q176 757 204 759T257 762Q287 763 300 728Q308 710 312 695T320 662Q325 643 321 636T299 626Q282 624 263 621T222 616Q211 563 200 501T177 374T156 245T138 124Q149 125 159 126T181
128Q210 133 224 101Q232 84 236 68T245 35Z" />
<glyph unicode="|" glyph-name="bar" horiz-adv-x="358" d="M233 774Q217 788 202 796T170 812Q153 820 144 815T129 788Q122 750 113 689T93 554T71 401T51 250T35 118T25 24Q23 0 27 -14T46 -39Q58 -47 70 -54T99 -68Q116 -74 121 -69T131 -44Q136 -2 145 60T165
194T188 342T212 489T234 619T252 716Q257 737 254 748T233 774Z" />
<glyph unicode="}" glyph-name="braceright" horiz-adv-x="377" d="M261 631Q264 649 263 661T250 691Q242 705 234 716T218 739Q208 753 199 758T172 761Q139 758 110 754T57 744Q45 741 37 732T34 706T44 673T57 640Q65 622 74 617T101 613Q109 614 117 615T133
618Q123 564 112 501T90 373T69 243T52 125Q21 119 -8 111T-41 88Q-43 82 -40 70T-31 45T-20 20T-10 1Q-2 -11 7 -16T33 -18Q54 -13 76 -9T122 0Q144 1 151 10T160 34Q167 85 176 147T197 278Q214 284 232 285T265 290T286 301T286 329Q281 347 277 366T265 402Q252
436 223 436Q234 490 243 539T261 631Z" />
<glyph unicode="~" glyph-name="asciitilde" horiz-adv-x="495" d="M327 511Q366 511 421 564Q476 616 476 655Q476 674 457 687Q441 697 424 697Q404 697 384 677Q381 673 374 664T360 646T345 630T334 624Q321 625 308 631T282 645T257 660T232 673Q190 693
155 693Q139 693 115 683T68 656T26 623T0 590Q-9 570 -9 554Q-9 514 35 514Q59 514 77 529Q78 529 85 536T101 552T119 568T137 575Q146 575 160 572T188 564T215 553T235 540Q264 511 327 511Z" />
<glyph unicode="&#xa0;" glyph-name="space" horiz-adv-x="241" />
<glyph unicode="&#xa1;" glyph-name="exclamdown" horiz-adv-x="267" d="M-7 11Q9 -3 29 -14T67 -32Q86 -40 94 -35T108 -6Q118 44 130 110T153 245T174 382T190 502Q194 528 190 542T170 567Q141 588 108 597Q93 602 86 598T76 573Q67 518 55 456T30 330T2 201T-26
75Q-31 54 -27 40T-7 11ZM226 708Q228 756 207 782T154 808Q139 808 127 801T107 782T93 759T85 737Q82 725 82 709T88 678T105 649T134 628Q155 619 171 623T199 639T218 669T226 708Z" />
<glyph unicode="&#xa2;" glyph-name="cent" horiz-adv-x="372" d="M270 258Q224 276 197 234Q159 174 138 184Q128 188 123 207T118 255T120 318T130 385Q137 416 148 450T171 514T196 560T217 575Q225 570 227 555T229 519Q229 513 229 508T231 496Q236 464 249
446T291 420Q307 415 310 421T317 439Q322 461 323 493T323 553Q321 577 315 595T291 632L279 641Q283 658 285 675T290 706Q295 742 285 768T254 812Q229 835 219 802Q212 779 205 745T189 676Q175 676 159 669T127 645Q92 606 67 544T29 415T16 282Q16 218 33
173Q39 155 49 141T71 118Q70 110 70 103T69 87Q67 51 75 16T107 -36Q120 -46 127 -44T136 -23Q138 -1 142 27T152 85H154Q176 83 198 91T235 114T262 150T283 198Q291 221 290 235T270 258Z" />
<glyph unicode="&#xa3;" glyph-name="sterling" horiz-adv-x="440" d="M50 443Q59 445 67 445T84 448Q82 430 79 412T74 376Q29 370 -10 361Q-22 358 -28 348T-28 320Q-23 306 -16 289T0 257Q8 242 17 238T43 237L55 240Q51 208 48 179T43 127Q40 103 45 86T62
54Q77 36 86 25T106 2Q115 -7 128 -13T170 -8Q210 4 254 16T340 41Q360 47 362 54T359 82Q356 99 351 117T337 152Q329 170 319 175T292 179Q262 176 236 172T180 161Q184 186 188 212T197 264Q251 270 307 273Q321 274 325 280T325 303Q321 317 317 331T304 361Q292
389 265 389Q254 389 243 389T219 389L231 458Q253 458 274 458Q296 458 319 457Q333 455 338 461T339 484Q336 498 332 512T321 543Q311 571 282 574Q275 575 269 575T254 577Q259 600 263 622T273 664T275 695T255 721T218 746T179 764Q162 771 153 767T137 740Q129
706 121 665T105 579Q79 577 54 575T5 569Q-7 567 -14 559T-16 531Q-12 516 -6 499T8 467Q16 450 25 446T50 443Z" />
<glyph unicode="&#xa5;" glyph-name="yen" horiz-adv-x="434" d="M57 282L96 288Q91 250 87 216Q63 213 41 209T-3 200Q-15 197 -21 187T-21 159Q-16 145 -9 128T7 96Q15 81 24 77T50 76Q63 80 73 81Q72 79 72 74Q70 48 74 35T93 7Q107 -2 124 -10T158 -26Q175
-32 181 -28T191 -3Q194 23 197 49T205 103Q259 109 314 112Q328 113 332 119T332 142Q328 156 324 170T311 200Q299 228 272 228Q261 228 249 228T225 228Q233 245 241 262T258 297Q275 297 292 297T326 296Q340 294 345 300T346 323Q343 337 339 351T328 382Q320
401 308 407Q341 480 367 543T404 644Q412 669 411 683T399 714Q389 726 376 740T349 763T324 771T307 751Q278 679 247 606T184 460Q168 532 154 595T126 706Q118 731 110 743T85 760T51 764T17 761Q1 758 -2 751T0 722Q13 658 30 578T67 415Q52 413 39 412T12
408Q0 406 -7 398T-9 370Q-5 355 1 338T15 306Q23 289 32 285T57 282Z" />
<glyph unicode="&#xa6;" glyph-name="brokenbar" horiz-adv-x="286" d="M233 774Q217 788 202 796T170 812Q153 820 144 815T129 788Q122 746 117 719T109 671T103 635T99 602T95 562T90 504Q88 480 92 466T111 441Q123 433 135 426T164 412Q181 406 186 411T196
436Q203 471 208 494T218 537T225 572T231 607T240 653T252 716Q257 737 254 748T233 774ZM163 299Q147 313 132 321T100 337Q83 345 74 340T59 313Q52 271 47 244T39 196T35 160T32 127T28 86T23 29Q21 5 25 -9T44 -34Q56 -42 68 -49T97 -63Q114 -69 119 -64T129
-39Q136 -4 141 19T149 62T156 97T162 132T170 178T182 241Q187 262 184 273T163 299Z" />
<glyph unicode="&#xa7;" glyph-name="section" horiz-adv-x="603" d="M-28 172Q-41 162 -41 144Q-41 127 -14 90Q37 15 87 -15T191 -43Q225 -42 250 -32T293 -6T324 29T345 67Q365 62 386 64Q426 65 454 79T502 113T532 157T550 202Q564 244 549 278T504 343T438
405T374 472Q353 499 354 534T367 602T397 663T431 701Q447 717 450 706T452 671T444 616T437 564Q431 492 517 450Q532 442 540 446T554 469Q560 488 565 514T575 567T583 622T588 671Q587 696 583 725T553 783Q535 805 508 823T455 853Q438 860 422 861T393 859T368
850T350 836Q329 819 309 795T270 741Q268 743 265 743T260 746Q243 753 227 754T198 752T173 743T155 729Q134 712 113 687T74 632T43 571T23 511Q5 442 20 385T69 288Q92 260 123 232T179 180T219 136T222 106Q204 85 164 99T69 163Q50 181 23 183T-28 172ZM179
365Q158 392 149 424T139 487T146 541T169 577Q201 609 213 600Q213 589 213 571T213 534T216 498T221 471Q231 436 253 405T303 353Q326 330 350 309T392 269T418 236T417 213Q403 197 376 201T313 230Q283 263 246 295T179 365Z" />
<glyph unicode="&#xa8;" glyph-name="dieresis" horiz-adv-x="420" d="M66 905Q64 871 80 851T120 832Q131 832 140 837T155 851T166 868T171 884Q174 893 174 905Q174 923 165 940T135 966Q120 972 108 969T87 957T73 934T66 905ZM241 905Q240 888 244 874T255
850T273 835T295 831Q306 831 315 836T330 850T340 867T346 883Q347 888 347 893T348 905Q348 922 339 939T310 965Q295 971 283 968T261 956T247 934T241 905Z" />
<glyph unicode="&#xa9;" glyph-name="copyright" horiz-adv-x="833" d="M778 673Q754 718 715 757T631 824T541 868T458 884Q393 884 329 850T207 757T105 621T35 460T7 289T33 125Q47 84 70 53T129 0Q182 -32 246 -44T378 -50T513 -20T638 45T742 143T812 274Q828
323 834 379T837 489T819 591T778 673ZM735 346Q720 314 703 282T666 219T623 163T572 118Q532 90 495 71T418 45T330 43T221 73Q165 94 138 137T106 236T115 358T158 486T226 607T310 706T401 768T490 780Q544 768 596 723T687 614T740 480T735 346ZM506 277Q462
296 434 254Q396 193 376 204Q366 208 361 227T356 275T358 336T368 403Q374 433 385 467T408 530T433 576T453 591Q462 586 464 571T466 536Q466 530 466 525T467 513Q472 482 485 464T527 438Q543 433 546 439T553 456Q558 479 559 511T559 570Q557 593 551 611T527
648Q510 663 485 675T436 691Q420 693 402 687T365 660Q331 621 306 560T268 433T255 302Q255 238 272 193Q279 173 291 158T317 134Q331 126 349 118T391 107Q414 104 436 112T472 134Q485 149 498 171T519 219Q527 241 526 255T506 277Z" />
<glyph unicode="&#xaa;" glyph-name="ordfeminine" horiz-adv-x="274" d="M200 521Q209 569 217 610T232 684Q235 697 233 704T221 720Q215 724 206 731T186 744T167 756T152 764Q141 769 135 768T120 756Q103 736 83 707T42 645T3 580T-28 520Q-34 507 -34 496Q-34
486 -29 475Q-13 446 5 425Q13 414 20 414T37 415Q54 419 71 421T106 427Q101 399 99 378T95 342Q93 325 95 317T107 300Q116 293 125 288T143 280Q154 276 158 279T164 294Q168 324 173 360T186 437Q196 438 205 438T223 440Q240 441 236 461Q233 472 231 481T225
501Q217 521 200 521ZM44 508Q67 544 93 586T148 661Q140 627 134 591T121 517Q101 515 81 513T44 508Z" />
<glyph unicode="&#xab;" glyph-name="guillemotleft" horiz-adv-x="624" d="M293 351Q289 329 294 321T311 304Q338 286 367 269T425 235T480 206T527 183Q538 178 546 181T557 198Q559 215 559 237T556 274Q551 292 547 299T527 312Q504 323 481 335T433 362Q476
379 516 398T584 435Q593 441 597 450T593 473Q582 490 570 506T547 534Q535 546 528 547T509 540Q471 517 431 498T340 458Q326 451 320 444T308 419Q299 391 293 351ZM-6 372Q-10 350 -5 342T12 325Q39 307 68 290T126 256T181 227T228 204Q239 199 247 202T258
219Q260 236 260 258T257 295Q252 313 248 320T228 333Q205 344 182 356T134 383Q177 400 217 419T285 456Q294 462 298 471T294 494Q283 511 271 527T248 555Q236 567 229 568T210 561Q172 538 132 519T41 479Q27 472 21 465T9 440Q0 412 -6 372Z" />
<glyph unicode="&#xac;" glyph-name="logicalnot" horiz-adv-x="949" d="M860 173Q888 190 906 205Q926 222 938 242T943 287Q938 309 927 324T899 354Q882 369 851 373T785 374T714 362T652 340Q650 309 645 273T635 200T624 128T615 64Q611 46 615 39T631 19Q644
8 654 1T681 -13Q695 -22 706 -22T737 -18Q753 -14 772 -7T811 8T847 27T877 49Q894 63 902 78T905 115Q903 132 890 148T860 173ZM503 78Q505 58 507 42T511 10Q514 -4 519 -9T535 -18Q547 -23 558 -23T582 -24Q594 -24 597 -21T601 -8Q598 34 596 80T591 171T589
254T590 323Q590 335 586 341T567 353Q549 358 528 362T472 369Q452 371 442 365T424 347Q405 317 383 277T340 193T299 109T267 34Q260 13 265 7T281 -7Q289 -11 296 -14T310 -20Q322 -24 326 -23T336 -12Q344 4 351 20T370 56Q397 64 432 68T503 78ZM660 718Q662
728 660 733T646 746Q621 762 594 768Q580 771 574 770T564 755Q554 722 545 679T525 591Q508 589 490 588T451 585Q462 623 469 655T485 710Q487 721 485 726T470 739Q457 747 443 752T415 762Q401 766 394 764T385 749Q378 716 371 674T356 588T340 503T322 428Q319
414 323 407T338 395Q348 389 361 386T385 379Q398 376 402 378T408 389Q414 413 419 442T433 505Q452 508 471 510T510 516Q505 489 502 467T497 426Q492 408 503 400T535 385Q555 380 568 378T582 389Q589 429 599 474T620 563T641 647T660 718ZM697 738L643
449Q641 436 644 427T656 410Q665 401 673 396T689 384Q696 379 706 377T737 379Q766 384 798 390T861 403Q874 406 877 409T875 423Q872 432 869 440T860 459Q855 467 847 470T825 472Q802 470 782 469T739 462Q744 476 746 489T754 517Q781 523 810 527T867 537Q880
540 883 543T882 557Q879 566 876 574T867 592Q862 600 855 603T834 605Q802 605 779 601Q786 624 791 644T804 683Q835 688 863 690T917 696Q929 698 932 701T933 715Q931 724 928 731T920 749Q911 766 888 766Q837 764 786 756T697 738ZM343 703Q356 705 358
708T358 720Q348 743 334 760Q329 765 323 767T303 770Q278 769 247 767T182 761T116 754T58 746Q50 744 48 741T49 729Q54 721 60 708T77 686Q85 678 92 676T111 677Q119 679 130 680T155 684Q148 655 140 621T126 551T114 484T106 428Q101 408 113 400T145 385Q166
379 179 377T194 388Q201 424 209 463T227 542T247 621T266 696Q286 698 306 699T343 703ZM235 6Q250 9 251 12T250 26Q246 35 243 44T234 61Q226 70 220 73T200 75Q177 73 158 71T115 66Q123 97 132 131T150 198T168 261T186 317Q189 327 186 332T172 345Q146
359 115 366Q102 370 96 368T85 354Q75 324 64 283T44 199T27 117T15 49Q13 37 17 29T29 12Q40 3 47 -2T62 -14Q69 -19 78 -22T109 -19Q138 -13 170 -7T235 6ZM291 226Q297 232 304 242T318 263T331 287T341 309Q342 315 342 319T343 325Q343 333 336 341Q330 346
323 351T307 362Q296 369 290 368T278 357Q272 344 264 327T246 293T229 260T214 233Q207 217 227 213Q235 212 244 211T260 212Q269 212 276 215T291 226ZM739 205Q744 228 749 247T761 285Q799 301 824 302T855 292Q857 285 850 274T828 251T791 226T739 205ZM413
143Q436 185 456 223T494 291Q494 258 495 223T499 152Q476 150 455 148T413 143ZM719 130Q757 143 780 140T808 126Q812 110 783 90T701 56Q706 75 710 93T719 130Z" />
<glyph unicode="&#xad;" glyph-name="hyphen" horiz-adv-x="395" d="M-56 492Q-36 498 -8 504T51 514T115 521T178 524Q205 524 224 487Q234 465 240 446T253 409Q260 387 256 380T236 372Q183 367 127 358T22 332Q9 327 -2 333T-26 360Q-39 380 -48 399T-66 438Q-85
484 -56 492Z" />
<glyph unicode="&#xae;" glyph-name="registered" horiz-adv-x="833" d="M778 673Q754 718 715 757T631 824T541 868T458 884Q393 884 329 850T207 757T105 621T35 460T7 289T33 125Q47 84 70 53T129 0Q182 -32 246 -44T378 -50T513 -20T638 45T742 143T812 274Q828
323 834 379T837 489T819 591T778 673ZM735 346Q720 314 703 282T666 219T623 163T572 118Q532 90 495 71T418 45T330 43T221 73Q165 94 138 137T106 236T115 358T158 486T226 607T310 706T401 768T490 780Q544 768 596 723T687 614T740 480T735 346ZM371 319Q383
297 398 275T428 233T457 196T483 167Q500 151 512 149T536 152Q545 154 551 155T565 168Q571 176 572 183T564 202Q551 217 537 235T510 274T483 315T458 353Q509 385 544 422T594 503Q602 528 595 569Q587 605 574 630T545 677Q526 701 502 706T450 706T394 684T338
653Q330 648 323 619T309 547T296 455T284 357T275 271T269 212T270 181T282 163Q291 155 301 152T323 144Q334 140 338 144T345 159Q352 199 358 238T371 319ZM421 576Q455 596 481 596Q506 596 511 579Q514 568 508 550T486 510T446 469T391 433Q400 475 407
510T421 576Z" />
<glyph unicode="&#xaf;" glyph-name="overscore" horiz-adv-x="395" d="M53 974Q24 966 43 920Q47 910 49 908T53 904T58 900T68 887Q81 866 92 860T116 859Q164 876 220 885T330 899Q346 900 350 907T347 936Q344 945 343 947T342 950T340 955T333 969Q314 1006
287 1006Q257 1006 225 1003T161 996T101 986T53 974Z" />
<glyph unicode="0;" glyph-name="degree" horiz-adv-x="249" d="M178 750Q153 763 116 768Q102 770 87 767T60 756Q34 739 17 715T-9 663T-17 610T-4 563Q1 554 10 547T28 536Q40 530 54 528T83 524Q123 520 150 538Q170 554 183 576T203 623T211 670T207
714Q203 725 197 733T178 750ZM127 725Q134 723 137 714T140 692T139 663T132 635Q122 601 105 580T73 563Q65 565 61 574T57 595T58 623T66 651T78 678T94 703T111 720T127 725Z" />
<glyph unicode="1;" glyph-name="plusminus" horiz-adv-x="488" d="M376 434Q390 434 394 440T393 464Q388 479 384 493T371 525Q358 553 331 555Q299 557 252 555Q256 575 260 593T269 629Q274 646 272 656T259 681Q249 695 233 708T202 729Q190 735 182
728T169 706Q160 676 152 635T135 546Q95 543 59 538T-3 525Q-14 522 -22 514T-26 489T-11 450T9 413Q20 398 28 395T51 395T82 402T115 408Q111 380 110 357T106 316Q104 283 126 266Q140 255 151 248T175 232Q189 224 194 227T202 249Q207 286 213 331T228 424Q266
429 303 430T376 434ZM374 82Q388 82 392 88T391 112Q386 127 382 141T369 173Q355 203 329 203Q284 202 254 201T200 198T159 193T119 185T70 173T2 158Q-9 156 -17 148T-21 122T-6 83T14 46Q25 31 33 28T56 28Q99 39 125 47T170 60T204 70T240 76T292 80T374
82Z" />
<glyph unicode="2;" glyph-name="twosuperior" horiz-adv-x="237" d="M71 380Q89 399 107 422T142 470T172 519T195 565Q210 601 214 633T202 702Q196 714 186 726T162 748T132 761T98 761Q68 753 42 727T-2 660Q-13 634 -11 624T1 608Q18 600 37 600T72 616Q81
629 90 640T108 659T124 670T136 668Q143 662 129 629T87 551T24 460T-44 377Q-54 366 -52 355T-44 333Q-38 322 -29 309T-11 287Q-6 279 1 277T26 279Q38 283 56 287T94 295T134 302T169 306Q178 308 180 312T180 327Q178 336 173 348T163 369Q153 389 136 388Q123
387 106 386T71 380Z" />
<glyph unicode="3;" glyph-name="threesuperior" horiz-adv-x="242" d="M129 527Q147 538 161 550T187 576Q196 587 201 603T207 638T202 678T183 721Q170 740 157 750T132 763T109 766T89 762Q63 754 41 734T5 692Q-5 676 8 660Q14 653 23 648T43 642T64
642T81 652Q92 660 103 668T124 677Q130 677 133 671Q142 657 114 626T12 561Q-3 554 6 531Q18 505 35 492T70 482Q84 484 92 483T109 473T117 442Q117 420 102 397Q86 374 65 371T9 393Q-3 401 -18 403T-46 394Q-53 388 -53 377Q-53 367 -36 347Q-9 312 19 299T73
286Q106 286 133 300T181 353Q199 387 197 428T164 504Q156 513 148 518T129 527Z" />
<glyph unicode="4;" glyph-name="acute" horiz-adv-x="395" d="M355 972Q353 993 348 1006T332 1027Q312 1041 299 1041T276 1032Q240 996 193 964T99 905Q89 897 88 889T89 873T95 862T99 859Q134 833 156 845Q183 857 211 873T266 907T316 941T355 972Z" />
<glyph unicode="5;" glyph-name="mu" horiz-adv-x="508" d="M209 -16Q239 -19 262 -13T309 11Q341 39 365 98T409 240T444 429T473 656Q476 677 473 688T453 713Q437 725 418 737T382 756T354 757T341 730Q335 680 327 613T307 474T283 335T256 214T225 133T190
110Q179 115 174 133T167 180T169 245T179 323Q184 357 192 401T208 488T225 567T237 622Q248 670 216 702Q201 716 185 727T152 745Q134 753 125 749T110 722Q88 632 67 518T27 283T-5 46T-26 -167Q-28 -193 -24 -207T-4 -233Q10 -244 26 -251T59 -265Q76 -271
82 -266T91 -244Q98 -192 107 -127T127 10Q163 -12 209 -16Z" />
<glyph unicode="6;" glyph-name="paragraph" horiz-adv-x="472" d="M81 153Q76 99 72 47T59 -56Q59 -72 63 -77T87 -77Q106 -70 124 -64T156 -47T181 -20T193 22Q193 28 199 65T216 156T237 272T260 391T279 491T289 550Q303 557 312 547T324 517Q322 499
315 453T298 348T275 221T253 95T234 -10T223 -72Q223 -88 227 -93T251 -93Q270 -86 288 -80T320 -63T344 -36T356 6Q357 29 364 81T382 197T403 329T422 456T433 552T432 595Q404 619 367 643T290 679T211 688T137 651Q108 622 81 587T30 501Q18 475 14 453T10
410T16 370T30 333Q49 287 91 243Q86 229 85 208T81 153Z" />
<glyph unicode="7;" glyph-name="middot" horiz-adv-x="221" d="M38 426Q36 380 57 353T110 328Q125 328 137 335T157 353T171 376T178 397Q181 410 181 426Q181 449 169 472T130 507Q110 515 94 511T65 495T46 465T38 426Z" />
<glyph unicode="8;" glyph-name="cedilla" horiz-adv-x="201" d="M56 -180Q64 -167 74 -147T94 -104T112 -58T125 -14Q130 14 130 19Q130 31 119 51Q111 62 101 73T78 94Q50 119 40 84Q32 58 21 24T-3 -45T-26 -112T-46 -166Q-58 -197 -29 -205Q-17 -207 -6
-208T17 -208Q40 -206 56 -180Z" />
<glyph unicode="9;" glyph-name="onesuperior" horiz-adv-x="151" d="M134 687Q137 700 135 706T122 722Q111 731 95 741T68 755T53 757T41 743Q34 730 25 713T11 679Q6 665 9 659T27 642Q21 608 15 567T5 486T-3 412T-8 356Q-10 339 -8 331T2 315Q12 308
27 301T54 290Q64 286 67 288T72 302Q76 341 83 393T100 499T117 602T134 687Z" />
<glyph unicode="a;" glyph-name="ordmasculine" horiz-adv-x="802" d="M258 314Q251 359 244 407T231 500T219 582T211 643Q207 673 200 688T174 714Q152 728 132 737T90 754Q73 760 62 754T46 725Q38 683 29 627T12 509T-5 383T-20 262T-32 160T-39 88Q-42
62 -38 48T-19 22Q-5 8 11 2T44 -11Q61 -18 67 -14T76 8Q80 44 86 91T100 191T116 301T133 415Q141 368 150 321T168 230T186 146T205 77Q217 34 246 17Q262 9 277 3T309 -9Q345 -21 348 17Q357 86 368 171T392 344T416 512T440 655Q444 676 441 690T421 719Q400
736 388 742T358 754T331 755T317 727Q302 642 286 536T258 314ZM684 584Q659 597 622 602Q608 604 593 601T566 590Q540 573 523 549T497 497T489 444T502 397Q507 388 516 381T534 370Q546 364 560 362T589 358Q629 354 656 372Q676 388 689 410T709 457T717
504T713 548Q709 559 703 567T684 584ZM438 268Q409 260 428 214Q432 204 432 201T433 196T436 191T444 178Q457 157 474 151T505 150Q553 167 609 176T719 190Q735 191 739 198T736 227Q733 236 732 238T729 243T725 248T718 263Q699 300 672 300Q642 300 610
297T546 290T486 280T438 268ZM629 540Q634 539 636 532T639 515Q639 506 638 495T633 475Q625 451 614 436T591 424Q580 427 579 447T586 487Q593 506 606 523T629 540Z" />
<glyph unicode="b;" glyph-name="guillemotright" horiz-adv-x="624" d="M299 397Q303 419 298 427T281 444Q254 462 225 479T167 513T112 542T65 565Q54 570 46 567T35 550Q33 533 33 511T36 474Q41 456 45 449T65 436Q88 425 111 413T159 386Q116 369 76
350T8 313Q-1 307 -5 298T-1 275Q10 258 22 242T45 214Q57 202 64 201T83 208Q121 231 161 250T252 290Q266 297 272 304T284 329Q293 357 299 397ZM598 376Q602 398 597 406T580 423Q553 441 524 458T466 492T411 521T364 544Q353 549 345 546T334 529Q332 512
332 490T335 453Q340 435 344 428T364 415Q387 404 410 392T458 365Q415 348 375 329T307 292Q298 286 294 277T298 254Q309 237 321 221T344 193Q356 181 363 180T382 187Q420 210 460 229T551 269Q565 276 571 283T583 308Q592 336 598 376Z" />
<glyph unicode="c;" glyph-name="onequarter" horiz-adv-x="536" d="M462 211Q471 259 479 300T494 374Q497 387 495 394T483 410Q477 414 468 421T448 434T429 446T414 454Q403 459 397 458T382 446Q365 426 345 397T304 335T265 270T234 210Q228 197 228
186Q228 176 233 165Q249 136 267 115Q275 104 282 104T299 105Q316 109 333 111T368 117Q363 89 361 68T357 32Q355 15 357 7T369 -10Q378 -17 387 -22T405 -30Q416 -34 420 -31T426 -16Q430 14 435 50T448 127Q458 128 467 128T485 130Q502 131 498 151Q495 162
493 171T487 191Q479 211 462 211ZM478 696Q474 705 473 707T470 709Q469 709 467 710T460 719Q440 751 413 721Q388 694 352 648T273 546T187 429T102 312T30 210T-21 138Q-35 118 -38 102Q-39 94 -38 86T-32 70Q-29 64 -29 65T-28 69Q-28 71 -26 71Q-25 71 -20
64Q-9 50 -1 50T19 68Q43 100 79 147T157 248T244 359T331 468T409 565T468 636Q481 651 484 663T478 696ZM112 694Q115 707 113 713T100 729Q89 738 73 748T46 762T31 764T19 750Q12 737 3 720T-11 686Q-16 672 -13 666T5 649Q-1 615 -7 574T-17 493T-25 419T-30
363Q-32 346 -30 338T-20 322Q-10 315 5 308T32 297Q42 293 45 295T50 309Q54 348 61 400T78 506T95 609T112 694ZM306 198Q329 234 355 276T410 351Q402 317 396 281T383 207Q363 205 343 203T306 198Z" />
<glyph unicode="d;" glyph-name="onehalf" horiz-adv-x="563" d="M478 696Q474 705 473 707T470 709Q469 709 467 710T460 719Q440 751 413 721Q388 694 352 648T273 546T187 429T102 312T30 210T-21 138Q-35 118 -38 102Q-39 94 -38 86T-32 70Q-29 64 -29
65T-28 69Q-28 71 -26 71Q-25 71 -20 64Q-9 50 -1 50T19 68Q43 100 79 147T157 248T244 359T331 468T409 565T468 636Q481 651 484 663T478 696ZM385 78Q403 97 421 120T456 168T486 217T509 263Q524 299 528 331T516 400Q510 412 500 424T476 446T446 459T412
459Q382 451 356 425T312 358Q301 332 303 322T315 306Q332 298 351 298T386 314Q395 327 404 338T422 357T438 368T450 366Q457 360 443 327T401 249T338 158T270 75Q260 64 262 53T270 31Q276 20 285 7T303 -15Q308 -23 315 -25T340 -23Q352 -19 370 -15T408
-7T448 0T483 4Q492 6 494 10T494 25Q492 34 487 46T477 67Q467 87 450 86Q437 85 420 84T385 78ZM112 694Q115 707 113 713T100 729Q89 738 73 748T46 762T31 764T19 750Q12 737 3 720T-11 686Q-16 672 -13 666T5 649Q-1 615 -7 574T-17 493T-25 419T-30 363Q-32
346 -30 338T-20 322Q-10 315 5 308T32 297Q42 293 45 295T50 309Q54 348 61 400T78 506T95 609T112 694Z" />
<glyph unicode="e;" glyph-name="threequarters" horiz-adv-x="632" d="M558 211Q567 259 575 300T590 374Q593 387 591 394T579 410Q573 414 564 421T544 434T525 446T510 454Q499 459 493 458T478 446Q461 426 441 397T400 335T361 270T330 210Q324 197
324 186Q324 176 329 165Q345 136 363 115Q371 104 378 104T395 105Q412 109 429 111T464 117Q459 89 457 68T453 32Q451 15 453 7T465 -10Q474 -17 483 -22T501 -30Q512 -34 516 -31T522 -16Q526 14 531 50T544 127Q554 128 563 128T581 130Q598 131 594 151Q591
162 589 171T583 191Q575 211 558 211ZM574 696Q570 705 569 707T566 709Q565 709 563 710T556 719Q536 751 509 721Q484 694 448 648T369 546T283 429T198 312T126 210T75 138Q61 118 58 102Q57 94 58 86T64 70Q67 64 67 65T68 69Q68 71 69 71Q71 71 76 64Q87
50 95 50T115 68Q139 100 175 147T253 248T340 359T427 468T505 565T564 636Q577 651 580 663T574 696ZM143 558Q161 569 175 581T201 607Q210 618 215 634T221 669T216 709T197 752Q184 771 171 781T146 794T123 797T103 793Q77 785 55 765T19 723Q9 707 22 691Q28
684 37 679T57 673T78 673T95 683Q106 691 117 699T138 708Q144 708 147 702Q156 688 128 657T26 592Q11 585 20 562Q32 536 49 523T84 513Q98 515 106 514T123 504T131 473Q131 451 116 428Q100 405 79 402T23 424Q11 432 -4 434T-32 425Q-39 419 -39 408Q-39
398 -22 378Q5 343 33 330T87 317Q120 317 147 331T195 384Q213 418 211 459T178 535Q170 544 162 549T143 558ZM402 198Q425 234 451 276T506 351Q498 317 492 281T479 207Q459 205 439 203T402 198Z" />
<glyph unicode="f;" glyph-name="questiondown" horiz-adv-x="453" d="M309 546Q296 555 280 564T251 577T228 577T220 554Q214 496 193 461T146 401T91 353T44 300Q31 279 21 252T10 191T17 122T51 46Q62 27 79 10T117 -19T164 -35T216 -32Q261 -21 300 17T371
115Q392 154 389 171T370 196Q340 214 309 211T255 184Q240 168 226 152T199 124T172 103T145 95Q136 95 128 102T117 125Q115 149 130 182T191 253Q209 269 231 289T274 337T310 401T328 484Q330 508 327 521T309 546ZM366 679Q370 724 350 749T300 779Q267 786
246 768T219 721Q218 718 218 709V694Q218 671 228 649T270 612Q291 603 308 605T337 618T357 644T366 679Z" />
<glyph unicode="0;" glyph-name="Agrave" horiz-adv-x="479" d="M275 186Q277 147 280 113T286 50Q289 22 295 11T318 -7Q334 -15 349 -16T381 -18Q398 -18 403 -11T407 14Q403 98 400 190T394 372T391 540T391 677Q392 700 387 714T362 737Q336 747 307 757T231
770Q204 773 190 760T167 726Q142 666 112 585T53 417T-2 247T-47 97Q-52 76 -52 63Q-52 51 -49 43T-41 30T-27 16Q-17 8 -7 2T12 -10Q27 -18 34 -15T48 5Q58 37 68 70T93 142Q130 156 178 166T275 186ZM131 977Q147 963 170 946T219 912T274 879T330 850Q352 838
387 864Q387 863 390 867T396 878T398 893T387 910Q341 937 294 969T210 1037Q200 1047 187 1047T154 1032Q143 1025 138 1012T131 977ZM152 316Q181 401 209 476T261 612Q261 546 263 476T267 334Q209 328 152 316Z" />
<glyph unicode="1;" glyph-name="Aacute" horiz-adv-x="479" d="M275 186Q277 147 280 113T286 50Q289 22 295 11T318 -7Q334 -15 349 -16T381 -18Q398 -18 403 -11T407 14Q403 98 400 190T394 372T391 540T391 677Q392 700 387 714T362 737Q336 747 307 757T231
770Q204 773 190 760T167 726Q142 666 112 585T53 417T-2 247T-47 97Q-52 76 -52 63Q-52 51 -49 43T-41 30T-27 16Q-17 8 -7 2T12 -10Q27 -18 34 -15T48 5Q58 37 68 70T93 142Q130 156 178 166T275 186ZM414 972Q412 993 407 1006T391 1027Q371 1041 358 1041T335
1032Q299 996 252 964T158 905Q148 897 147 889T148 873T154 862T158 859Q193 833 215 845Q242 857 270 873T325 907T375 941T414 972ZM152 316Q181 401 209 476T261 612Q261 546 263 476T267 334Q209 328 152 316Z" />
<glyph unicode="2;" glyph-name="Acircumflex" horiz-adv-x="479" d="M275 186Q277 147 280 113T286 50Q289 22 295 11T318 -7Q334 -15 349 -16T381 -18Q398 -18 403 -11T407 14Q403 98 400 190T394 372T391 540T391 677Q392 700 387 714T362 737Q336 747
307 757T231 770Q204 773 190 760T167 726Q142 666 112 585T53 417T-2 247T-47 97Q-52 76 -52 63Q-52 51 -49 43T-41 30T-27 16Q-17 8 -7 2T12 -10Q27 -18 34 -15T48 5Q58 37 68 70T93 142Q130 156 178 166T275 186ZM384 834Q401 833 397 853Q393 872 388 896T377
947T367 1001T359 1054Q357 1070 354 1077T345 1093Q338 1101 331 1107T315 1121Q307 1127 301 1127T287 1115Q271 1095 255 1072T225 1026T199 981T178 943Q169 926 179 907Q185 896 190 888T202 872Q209 863 214 863Q219 863 224 872Q240 898 258 927T299 988Q307
952 313 920T325 866Q333 844 349 840Q359 836 367 835T384 834ZM152 316Q181 401 209 476T261 612Q261 546 263 476T267 334Q209 328 152 316Z" />
<glyph unicode="3;" glyph-name="Atilde" horiz-adv-x="479" d="M275 186Q277 147 280 113T286 50Q289 22 295 11T318 -7Q334 -15 349 -16T381 -18Q398 -18 403 -11T407 14Q403 98 400 190T394 372T391 540T391 677Q392 700 387 714T362 737Q336 747 307 757T231
770Q204 773 190 760T167 726Q142 666 112 585T53 417T-2 247T-47 97Q-52 76 -52 63Q-52 51 -49 43T-41 30T-27 16Q-17 8 -7 2T12 -10Q27 -18 34 -15T48 5Q58 37 68 70T93 142Q130 156 178 166T275 186ZM336 852Q366 852 403 889Q442 925 442 954Q442 967 429 977Q418
984 405 984Q391 984 377 970Q375 967 370 961T360 948T349 937T341 932Q322 934 304 947T269 967Q254 974 241 977T214 981Q202 981 185 974T152 955T122 931T103 908Q97 894 97 882Q97 854 128 854Q147 854 158 864Q159 864 164 869T175 880T188 892T201 897Q208
897 218 895T238 890T257 882T271 872Q291 852 336 852ZM152 316Q181 401 209 476T261 612Q261 546 263 476T267 334Q209 328 152 316Z" />
<glyph unicode="4;" glyph-name="Adieresis" horiz-adv-x="479" d="M275 186Q277 147 280 113T286 50Q289 22 295 11T318 -7Q334 -15 349 -16T381 -18Q398 -18 403 -11T407 14Q403 98 400 190T394 372T391 540T391 677Q392 700 387 714T362 737Q336 747 307
757T231 770Q204 773 190 760T167 726Q142 666 112 585T53 417T-2 247T-47 97Q-52 76 -52 63Q-52 51 -49 43T-41 30T-27 16Q-17 8 -7 2T12 -10Q27 -18 34 -15T48 5Q58 37 68 70T93 142Q130 156 178 166T275 186ZM152 316Q181 401 209 476T261 612Q261 546 263 476T267
334Q209 328 152 316ZM138 910Q136 876 152 856T192 837Q203 837 212 842T227 856T238 873T243 889Q246 898 246 910Q246 928 237 945T207 971Q192 977 180 974T159 962T145 939T138 910ZM313 910Q312 893 316 879T327 855T345 840T367 836Q378 836 387 841T402
855T412 872T418 888Q419 893 419 898T420 910Q420 927 411 944T382 970Q367 976 355 973T333 961T319 939T313 910Z" />
<glyph unicode="5;" glyph-name="Aring" horiz-adv-x="479" d="M275 186Q277 147 280 113T286 50Q289 22 295 11T318 -7Q334 -15 349 -16T381 -18Q398 -18 403 -11T407 14Q403 98 400 190T394 372T391 540T391 677Q392 700 387 714T362 737Q336 747 307 757T231
770Q204 773 190 760T167 726Q142 666 112 585T53 417T-2 247T-47 97Q-52 76 -52 63Q-52 51 -49 43T-41 30T-27 16Q-17 8 -7 2T12 -10Q27 -18 34 -15T48 5Q58 37 68 70T93 142Q130 156 178 166T275 186ZM378 1036Q353 1049 316 1054Q302 1056 287 1053T260 1042Q234
1025 217 1001T191 949T183 896T196 849Q201 840 210 833T228 822Q240 816 254 814T283 810Q323 806 350 824Q370 840 383 862T403 909T411 956T407 1000Q403 1011 397 1019T378 1036ZM152 316Q181 401 209 476T261 612Q261 546 263 476T267 334Q209 328 152 316ZM327
1011Q334 1009 337 1000T340 978T339 949T332 921Q322 887 305 866T273 849Q265 851 261 860T257 881T258 909T266 937T278 964T294 989T311 1006T327 1011Z" />
<glyph unicode="6;" glyph-name="AE" horiz-adv-x="704" d="M471 738Q446 748 419 758T344 771Q318 774 302 761T274 727Q240 667 198 586T114 418T32 248T-35 98Q-43 77 -45 65T-46 44T-39 31T-28 17Q-19 9 -10 3T7 -9Q22 -17 30 -14T46 6Q60 38 75 71T111
143Q149 157 199 166T298 186Q295 154 292 133T286 97T282 72T280 50Q278 22 288 12T315 -6Q319 -10 333 -11T363 -13Q379 -13 394 -12T416 -9Q456 2 500 15T586 40Q603 45 606 52T606 80Q601 98 596 115T583 151Q576 168 566 174T538 178Q506 175 478 171T421
158Q421 162 421 165T422 172Q431 217 440 268Q477 279 516 288T594 308Q611 313 615 320T614 348Q610 366 606 383T593 418Q586 435 576 440T549 445Q529 444 511 443T473 437Q483 482 491 523T507 601Q549 609 587 615T661 626Q678 629 682 636T684 665Q680 683
677 698T665 732Q655 767 622 766Q577 764 542 756T475 736Q474 737 473 737Q472 737 471 738ZM196 317Q238 402 278 477T351 613Q341 547 332 477T315 335Q285 332 256 328T196 317Z" />
<glyph unicode="7;" glyph-name="Ccedilla" horiz-adv-x="428" d="M97 -203Q105 -190 115 -170T135 -127T153 -81T166 -37Q166 -35 166 -33T167 -28Q195 -28 221 -17T264 11Q282 31 300 61T329 126Q339 156 338 176T311 206Q250 231 212 174Q160 92 133 106Q119
112 113 138T105 202T108 287T122 378Q131 420 146 467T178 553T211 616T239 635Q251 629 253 608T256 560Q256 552 256 544T258 528Q264 486 282 462T340 426Q361 420 366 428T375 451Q381 481 383 525T383 606Q381 638 373 663T340 713Q317 733 283 750T215 772Q193
774 168 766T118 730Q87 694 61 645T16 538T-15 419T-30 298T-29 185T-9 91Q0 63 17 42T52 10Q55 8 63 4Q54 -21 45 -48T26 -100T9 -149T-5 -189Q-17 -220 12 -228Q24 -230 35 -231T58 -231Q81 -229 97 -203Z" />
<glyph unicode="8;" glyph-name="Egrave" horiz-adv-x="385" d="M45 710L-31 132Q-33 106 -28 87T-11 54Q2 36 12 25T33 2Q43 -8 56 -13T97 -9Q137 2 181 15T267 40Q284 45 287 52T287 80Q282 98 277 115T264 151Q257 168 247 174T219 178Q187 175 159 171T101
158Q106 184 111 211T121 268Q158 279 197 288T275 308Q292 313 296 320T295 348Q291 366 287 383T274 418Q267 435 257 440T230 445Q210 444 192 443T154 437Q164 482 172 523T188 601Q230 609 268 615T342 626Q359 629 363 636T365 665Q361 683 358 698T346 732Q336
767 303 766Q233 762 165 745T45 710ZM87 972Q103 958 126 941T175 907T230 874T286 845Q308 833 343 859Q343 858 346 862T352 873T354 888T343 905Q297 932 250 964T166 1032Q156 1042 143 1042T110 1027Q99 1020 94 1007T87 972Z" />
<glyph unicode="9;" glyph-name="Eacute" horiz-adv-x="385" d="M45 710L-31 132Q-33 106 -28 87T-11 54Q2 36 12 25T33 2Q43 -8 56 -13T97 -9Q137 2 181 15T267 40Q284 45 287 52T287 80Q282 98 277 115T264 151Q257 168 247 174T219 178Q187 175 159 171T101
158Q106 184 111 211T121 268Q158 279 197 288T275 308Q292 313 296 320T295 348Q291 366 287 383T274 418Q267 435 257 440T230 445Q210 444 192 443T154 437Q164 482 172 523T188 601Q230 609 268 615T342 626Q359 629 363 636T365 665Q361 683 358 698T346 732Q336
767 303 766Q233 762 165 745T45 710ZM355 972Q353 993 348 1006T332 1027Q312 1041 299 1041T276 1032Q240 996 193 964T99 905Q89 897 88 889T89 873T95 862T99 859Q134 833 156 845Q183 857 211 873T266 907T316 941T355 972Z" />
<glyph unicode="a;" glyph-name="Ecircumflex" horiz-adv-x="385" d="M45 710L-31 132Q-33 106 -28 87T-11 54Q2 36 12 25T33 2Q43 -8 56 -13T97 -9Q137 2 181 15T267 40Q284 45 287 52T287 80Q282 98 277 115T264 151Q257 168 247 174T219 178Q187 175 159
171T101 158Q106 184 111 211T121 268Q158 279 197 288T275 308Q292 313 296 320T295 348Q291 366 287 383T274 418Q267 435 257 440T230 445Q210 444 192 443T154 437Q164 482 172 523T188 601Q230 609 268 615T342 626Q359 629 363 636T365 665Q361 683 358 698T346
732Q336 767 303 766Q233 762 165 745T45 710ZM329 831Q346 830 342 850Q338 869 333 893T322 944T312 998T304 1051Q302 1067 299 1074T290 1090Q283 1098 276 1104T260 1118Q252 1124 246 1124T232 1112Q216 1092 200 1069T170 1023T144 978T123 940Q114 923
124 904Q130 893 135 885T147 869Q154 860 159 860Q164 860 169 869Q185 895 203 924T244 985Q252 949 258 917T270 863Q278 841 294 837Q304 833 312 832T329 831Z" />
<glyph unicode="b;" glyph-name="Edieresis" horiz-adv-x="385" d="M45 710L-31 132Q-33 106 -28 87T-11 54Q2 36 12 25T33 2Q43 -8 56 -13T97 -9Q137 2 181 15T267 40Q284 45 287 52T287 80Q282 98 277 115T264 151Q257 168 247 174T219 178Q187 175 159
171T101 158Q106 184 111 211T121 268Q158 279 197 288T275 308Q292 313 296 320T295 348Q291 366 287 383T274 418Q267 435 257 440T230 445Q210 444 192 443T154 437Q164 482 172 523T188 601Q230 609 268 615T342 626Q359 629 363 636T365 665Q361 683 358 698T346
732Q336 767 303 766Q233 762 165 745T45 710ZM66 905Q64 871 80 851T120 832Q131 832 140 837T155 851T166 868T171 884Q174 893 174 905Q174 923 165 940T135 966Q120 972 108 969T87 957T73 934T66 905ZM241 905Q240 888 244 874T255 850T273 835T295 831Q306
831 315 836T330 850T340 867T346 883Q347 888 347 893T348 905Q348 922 339 939T310 965Q295 971 283 968T261 956T247 934T241 905Z" />
<glyph unicode="c;" glyph-name="Igrave" horiz-adv-x="208" d="M160 707Q144 721 123 733T84 752Q66 759 57 754T43 727Q36 690 28 637T11 524T-6 400T-21 277T-33 168T-40 83Q-42 57 -38 43T-18 17Q-4 6 12 -1T45 -15Q62 -21 68 -16T77 6Q83 50 90 104T107
218T125 338T144 455T163 562T180 649Q184 670 181 681T160 707ZM-29 993Q-13 979 10 962T59 928T114 895T170 866Q192 854 227 880Q227 879 230 883T236 894T238 909T227 926Q181 953 134 985T50 1053Q40 1063 27 1063T-6 1048Q-17 1041 -22 1028T-29 993Z" />
<glyph unicode="d;" glyph-name="Iacute" horiz-adv-x="208" d="M160 707Q144 721 123 733T84 752Q66 759 57 754T43 727Q36 690 28 637T11 524T-6 400T-21 277T-33 168T-40 83Q-42 57 -38 43T-18 17Q-4 6 12 -1T45 -15Q62 -21 68 -16T77 6Q83 50 90 104T107
218T125 338T144 455T163 562T180 649Q184 670 181 681T160 707ZM282 974Q280 995 275 1008T259 1029Q239 1043 226 1043T203 1034Q167 998 120 966T26 907Q16 899 15 891T16 875T22 864T26 861Q61 835 83 847Q110 859 138 875T193 909T243 943T282 974Z" />
<glyph unicode="e;" glyph-name="Icircumflex" horiz-adv-x="208" d="M160 707Q144 721 123 733T84 752Q66 759 57 754T43 727Q36 690 28 637T11 524T-6 400T-21 277T-33 168T-40 83Q-42 57 -38 43T-18 17Q-4 6 12 -1T45 -15Q62 -21 68 -16T77 6Q83 50 90
104T107 218T125 338T144 455T163 562T180 649Q184 670 181 681T160 707ZM232 826Q249 825 245 845Q241 864 236 888T225 939T215 993T207 1046Q205 1062 202 1069T193 1085Q186 1093 179 1099T163 1113Q155 1119 149 1119T135 1107Q119 1087 103 1064T73 1018T47
973T26 935Q17 918 27 899Q33 888 38 880T50 864Q57 855 62 855Q67 855 72 864Q88 890 106 919T147 980Q155 944 161 912T173 858Q181 836 197 832Q207 828 215 827T232 826Z" />
<glyph unicode="f;" glyph-name="Idieresis" horiz-adv-x="208" d="M160 707Q144 721 123 733T84 752Q66 759 57 754T43 727Q36 690 28 637T11 524T-6 400T-21 277T-33 168T-40 83Q-42 57 -38 43T-18 17Q-4 6 12 -1T45 -15Q62 -21 68 -16T77 6Q83 50 90 104T107
218T125 338T144 455T163 562T180 649Q184 670 181 681T160 707ZM-19 905Q-21 871 -5 851T35 832Q46 832 55 837T70 851T81 868T86 884Q89 893 89 905Q89 923 80 940T50 966Q35 972 23 969T2 957T-12 934T-19 905ZM156 905Q155 888 159 874T170 850T188 835T210
831Q221 831 230 836T245 850T255 867T261 883Q262 888 262 893T263 905Q263 922 254 939T225 965Q210 971 198 968T176 956T162 934T156 905Z" />
<glyph unicode="&#xd0;" glyph-name="Eth" horiz-adv-x="601" d="M27 462Q-20 456 -1 417Q12 388 41 352Q56 335 71 330T108 329L90 155Q87 131 88 116T92 89T102 70T114 52Q131 32 144 19T177 -9Q213 -38 248 -18Q314 10 365 55T451 155T508 271T537 392T538
509T513 611Q492 664 463 696T401 744T332 762T263 758T199 737T146 706L122 473Q99 471 77 469T27 462ZM215 138Q223 192 230 244T246 347Q262 348 281 348T328 351Q351 352 359 358T362 382Q357 396 352 412T336 447Q320 478 276 478H268Q273 508 279 537T291
596Q329 613 356 600T395 558Q400 544 403 524T405 478Q404 440 393 394T360 302T302 213T215 138Z" />
<glyph unicode="&#xd1;" glyph-name="Ntilde" horiz-adv-x="468" d="M258 314Q251 359 244 407T231 500T219 582T211 643Q207 673 200 688T174 714Q152 728 132 737T90 754Q73 760 62 754T46 725Q38 683 29 627T12 509T-5 383T-20 262T-32 160T-39 88Q-42 62 -38
48T-19 22Q-5 8 11 2T44 -11Q61 -18 67 -14T76 8Q80 44 86 91T100 191T116 301T133 415Q141 368 150 321T168 230T186 146T205 77Q217 34 246 17Q262 9 277 3T309 -9Q345 -21 348 17Q357 86 368 171T392 344T416 512T440 655Q444 676 441 690T421 719Q400 736 388
742T358 754T331 755T317 727Q302 642 286 536T258 314ZM336 852Q366 852 403 889Q442 925 442 954Q442 967 429 977Q418 984 405 984Q391 984 377 970Q375 967 370 961T360 948T349 937T341 932Q322 934 304 947T269 967Q254 974 241 977T214 981Q202 981 185
974T152 955T122 931T103 908Q97 894 97 882Q97 854 128 854Q147 854 158 864Q159 864 164 869T175 880T188 892T201 897Q208 897 218 895T238 890T257 882T271 872Q291 852 336 852Z" />
<glyph unicode="&#xd2;" glyph-name="Ograve" horiz-adv-x="463" d="M340 704Q320 725 290 739T226 761Q201 766 173 756T124 724Q76 671 44 593T-3 429T-17 259T6 109Q15 81 32 59T66 23Q88 6 114 -2T166 -15Q204 -21 233 -11T289 31Q326 82 350 152T386 299T400
451T392 589Q386 624 375 652T340 704ZM247 625Q259 620 265 590T271 518T268 428T256 338Q247 285 234 240T207 164T177 117T148 109Q133 116 126 145T118 214T121 302T135 391Q144 432 158 476T187 554T219 609T247 625ZM87 972Q103 958 126 941T175 907T230
874T286 845Q308 833 343 859Q343 858 346 862T352 873T354 888T343 905Q297 932 250 964T166 1032Q156 1042 143 1042T110 1027Q99 1020 94 1007T87 972Z" />
<glyph unicode="&#xd3;" glyph-name="Oacute" horiz-adv-x="463" d="M340 704Q320 725 290 739T226 761Q201 766 173 756T124 724Q76 671 44 593T-3 429T-17 259T6 109Q15 81 32 59T66 23Q88 6 114 -2T166 -15Q204 -21 233 -11T289 31Q326 82 350 152T386 299T400
451T392 589Q386 624 375 652T340 704ZM247 625Q259 620 265 590T271 518T268 428T256 338Q247 285 234 240T207 164T177 117T148 109Q133 116 126 145T118 214T121 302T135 391Q144 432 158 476T187 554T219 609T247 625ZM355 972Q353 993 348 1006T332 1027Q312
1041 299 1041T276 1032Q240 996 193 964T99 905Q89 897 88 889T89 873T95 862T99 859Q134 833 156 845Q183 857 211 873T266 907T316 941T355 972Z" />
<glyph unicode="&#xd4;" glyph-name="Ocircumflex" horiz-adv-x="463" d="M340 704Q320 725 290 739T226 761Q201 766 173 756T124 724Q76 671 44 593T-3 429T-17 259T6 109Q15 81 32 59T66 23Q88 6 114 -2T166 -15Q204 -21 233 -11T289 31Q326 82 350 152T386
299T400 451T392 589Q386 624 375 652T340 704ZM247 625Q259 620 265 590T271 518T268 428T256 338Q247 285 234 240T207 164T177 117T148 109Q133 116 126 145T118 214T121 302T135 391Q144 432 158 476T187 554T219 609T247 625ZM363 814Q380 813 376 833Q372
852 367 876T356 927T346 981T338 1034Q336 1050 333 1057T324 1073Q317 1081 310 1087T294 1101Q286 1107 280 1107T266 1095Q250 1075 234 1052T204 1006T178 961T157 923Q148 906 158 887Q164 876 169 868T181 852Q188 843 193 843Q198 843 203 852Q219 878
237 907T278 968Q286 932 292 900T304 846Q312 824 328 820Q338 816 346 815T363 814Z" />
<glyph unicode="&#xd5;" glyph-name="Otilde" horiz-adv-x="463" d="M340 704Q320 725 290 739T226 761Q201 766 173 756T124 724Q76 671 44 593T-3 429T-17 259T6 109Q15 81 32 59T66 23Q88 6 114 -2T166 -15Q204 -21 233 -11T289 31Q326 82 350 152T386 299T400
451T392 589Q386 624 375 652T340 704ZM247 625Q259 620 265 590T271 518T268 428T256 338Q247 285 234 240T207 164T177 117T148 109Q133 116 126 145T118 214T121 302T135 391Q144 432 158 476T187 554T219 609T247 625ZM336 852Q366 852 403 889Q442 925 442
954Q442 967 429 977Q418 984 405 984Q391 984 377 970Q375 967 370 961T360 948T349 937T341 932Q322 934 304 947T269 967Q254 974 241 977T214 981Q202 981 185 974T152 955T122 931T103 908Q97 894 97 882Q97 854 128 854Q147 854 158 864Q159 864 164 869T175
880T188 892T201 897Q208 897 218 895T238 890T257 882T271 872Q291 852 336 852Z" />
<glyph unicode="&#xd6;" glyph-name="Odieresis" horiz-adv-x="463" d="M340 704Q320 725 290 739T226 761Q201 766 173 756T124 724Q76 671 44 593T-3 429T-17 259T6 109Q15 81 32 59T66 23Q88 6 114 -2T166 -15Q204 -21 233 -11T289 31Q326 82 350 152T386 299T400
451T392 589Q386 624 375 652T340 704ZM247 625Q259 620 265 590T271 518T268 428T256 338Q247 285 234 240T207 164T177 117T148 109Q133 116 126 145T118 214T121 302T135 391Q144 432 158 476T187 554T219 609T247 625ZM100 905Q98 871 114 851T154 832Q165
832 174 837T189 851T200 868T205 884Q208 893 208 905Q208 923 199 940T169 966Q154 972 142 969T121 957T107 934T100 905ZM275 905Q274 888 278 874T289 850T307 835T329 831Q340 831 349 836T364 850T374 867T380 883Q381 888 381 893T382 905Q382 922 373
939T344 965Q329 971 317 968T295 956T281 934T275 905Z" />
<glyph unicode="&#xd7;" glyph-name="multiply" horiz-adv-x="437" d="M275 193Q285 183 292 184T308 202Q315 216 322 229T335 261Q347 291 328 311Q307 334 273 366Q290 378 306 387T337 407Q353 415 359 423T367 451Q370 468 368 488T360 525Q356 538 345 539T321
532Q293 517 258 494T183 443Q153 469 124 490T71 525Q61 531 50 531T29 516Q21 500 13 478T0 438Q-2 419 1 411T17 395Q42 381 72 359Q49 342 32 327T0 301Q-24 278 -21 251Q-19 233 -16 220T-10 192Q-6 176 -1 175T21 185Q50 208 86 235T163 291Q194 268 221
243T275 193Z" />
<glyph unicode="&#xd8;" glyph-name="Oslash" horiz-adv-x="463" d="M391 812Q385 819 385 820T388 821T390 820Q390 821 383 827Q354 853 338 816Q330 802 321 781T301 733Q284 743 265 749T226 761Q201 766 173 756T124 724Q76 671 44 593T-3 429T-17 259T6
109Q11 92 20 77T40 49Q33 31 28 16T20 -9Q13 -33 14 -49Q16 -67 28 -78Q33 -83 31 -81T25 -77T20 -73T25 -78Q40 -89 48 -86T62 -64Q67 -50 74 -32T89 7Q108 -2 127 -7T166 -15Q204 -21 233 -11T289 31Q326 82 350 152T386 299T400 451T392 589Q387 613 381 634T363
673Q384 722 398 752Q406 770 406 782T391 812ZM256 338Q247 285 234 240T207 164T177 117T148 109Q140 112 135 122Q165 197 200 282T269 450Q267 421 264 393T256 338ZM247 625Q251 623 254 619Q222 538 186 445T118 264Q121 329 135 391Q144 432 158 476T187
554T219 609T247 625Z" />
<glyph unicode="&#xd9;" glyph-name="Ugrave" horiz-adv-x="451" d="M0 102Q10 74 24 55T54 22Q92 -10 152 -16Q182 -19 205 -13T252 11Q284 39 308 98T352 240T387 429T416 656Q419 677 416 688T396 713Q380 725 361 737T325 756T297 757T284 730Q278 680 270
613T250 474T226 335T199 214T168 133T133 110Q119 116 114 144T111 215T120 311T137 418T158 526T180 622Q191 670 159 702Q144 716 128 727T95 745Q77 753 68 749T53 722Q35 645 18 558T-10 386T-20 227T0 102ZM87 972Q103 958 126 941T175 907T230 874T286 845Q308
833 343 859Q343 858 346 862T352 873T354 888T343 905Q297 932 250 964T166 1032Q156 1042 143 1042T110 1027Q99 1020 94 1007T87 972Z" />
<glyph unicode="&#xda;" glyph-name="Uacute" horiz-adv-x="451" d="M0 102Q10 74 24 55T54 22Q92 -10 152 -16Q182 -19 205 -13T252 11Q284 39 308 98T352 240T387 429T416 656Q419 677 416 688T396 713Q380 725 361 737T325 756T297 757T284 730Q278 680 270
613T250 474T226 335T199 214T168 133T133 110Q119 116 114 144T111 215T120 311T137 418T158 526T180 622Q191 670 159 702Q144 716 128 727T95 745Q77 753 68 749T53 722Q35 645 18 558T-10 386T-20 227T0 102ZM355 972Q353 993 348 1006T332 1027Q312 1041 299
1041T276 1032Q240 996 193 964T99 905Q89 897 88 889T89 873T95 862T99 859Q134 833 156 845Q183 857 211 873T266 907T316 941T355 972Z" />
<glyph unicode="&#xdb;" glyph-name="Ucircumflex" horiz-adv-x="451" d="M0 102Q10 74 24 55T54 22Q92 -10 152 -16Q182 -19 205 -13T252 11Q284 39 308 98T352 240T387 429T416 656Q419 677 416 688T396 713Q380 725 361 737T325 756T297 757T284 730Q278 680
270 613T250 474T226 335T199 214T168 133T133 110Q119 116 114 144T111 215T120 311T137 418T158 526T180 622Q191 670 159 702Q144 716 128 727T95 745Q77 753 68 749T53 722Q35 645 18 558T-10 386T-20 227T0 102ZM329 831Q346 830 342 850Q338 869 333 893T322
944T312 998T304 1051Q302 1067 299 1074T290 1090Q283 1098 276 1104T260 1118Q252 1124 246 1124T232 1112Q216 1092 200 1069T170 1023T144 978T123 940Q114 923 124 904Q130 893 135 885T147 869Q154 860 159 860Q164 860 169 869Q185 895 203 924T244 985Q252
949 258 917T270 863Q278 841 294 837Q304 833 312 832T329 831Z" />
<glyph unicode="&#xdc;" glyph-name="Udieresis" horiz-adv-x="451" d="M0 102Q10 74 24 55T54 22Q92 -10 152 -16Q182 -19 205 -13T252 11Q284 39 308 98T352 240T387 429T416 656Q419 677 416 688T396 713Q380 725 361 737T325 756T297 757T284 730Q278 680
270 613T250 474T226 335T199 214T168 133T133 110Q119 116 114 144T111 215T120 311T137 418T158 526T180 622Q191 670 159 702Q144 716 128 727T95 745Q77 753 68 749T53 722Q35 645 18 558T-10 386T-20 227T0 102ZM95 905Q93 871 109 851T149 832Q160 832 169
837T184 851T195 868T200 884Q203 893 203 905Q203 923 194 940T164 966Q149 972 137 969T116 957T102 934T95 905ZM270 905Q269 888 273 874T284 850T302 835T324 831Q335 831 344 836T359 850T369 867T375 883Q376 888 376 893T377 905Q377 922 368 939T339 965Q324
971 312 968T290 956T276 934T270 905Z" />
<glyph unicode="&#xdd;" glyph-name="Yacute" horiz-adv-x="434" d="M404 644Q412 669 411 683T399 714Q389 726 376 740T349 763T324 771T307 751Q278 679 247 606T184 460Q168 532 154 595T126 706Q118 731 110 743T85 760T51 764T17 761Q1 758 -2 751T0 722Q9
678 20 625T45 514T71 400T96 288Q88 225 83 171T72 74Q70 48 74 35T93 7Q107 -2 124 -10T158 -26Q175 -32 181 -28T191 -3Q198 51 206 107T225 227Q252 284 280 345T332 462T376 565T404 644ZM355 972Q353 993 348 1006T332 1027Q312 1041 299 1041T276 1032Q240
996 193 964T99 905Q89 897 88 889T89 873T95 862T99 859Q134 833 156 845Q183 857 211 873T266 907T316 941T355 972Z" />
<glyph unicode="&#xde;" glyph-name="Thorn" horiz-adv-x="438" d="M160 707Q144 721 123 733T84 752Q66 759 57 754T43 727Q36 690 28 637T11 524T-6 400T-21 277T-33 168T-40 83Q-42 57 -38 43T-18 17Q-4 6 12 -1T45 -15Q62 -21 68 -16T77 6Q79 23 81 41T87
78Q125 93 163 114T237 160T301 215T351 274Q375 310 389 350T393 442T364 528T324 592Q297 625 258 629T173 619Q175 627 176 634T180 649Q184 670 181 681T160 707ZM115 250Q125 305 134 354T153 449Q175 462 196 468T235 475T263 471T276 456Q281 438 273 411T245
355T192 298T115 250Z" />
<glyph unicode="&#xdf;" glyph-name="germandbls" horiz-adv-x="682" d="M597 696Q593 705 592 707T589 709Q588 709 586 710T579 719Q559 751 532 721Q507 694 471 648T392 546T306 429T221 312T149 210T98 138Q84 118 81 102Q80 94 81 86T87 70Q90 64 90 65T91
69Q91 71 92 71Q94 71 99 64Q110 50 118 50T138 68Q162 100 198 147T276 248T363 359T450 468T528 565T587 636Q600 651 603 663T597 696ZM94 414Q112 433 130 456T165 504T195 553T218 599Q233 635 237 667T225 736Q219 748 209 760T185 782T155 795T121 795Q91
787 65 761T21 694Q10 668 12 658T24 642Q41 634 60 634T95 650Q104 663 113 674T131 693T147 704T159 702Q166 696 152 663T110 585T47 494T-21 411Q-31 400 -29 389T-21 367Q-15 356 -6 343T12 321Q17 313 24 311T49 313Q61 317 79 321T117 329T157 336T192 340Q201
342 203 346T203 361Q201 370 196 382T186 403Q176 423 159 422Q146 421 129 420T94 414ZM569 230Q587 241 601 253T627 279Q636 290 641 306T647 341T642 381T623 424Q610 443 597 453T572 466T549 469T529 465Q503 457 481 437T445 395Q435 379 448 363Q454 356
463 351T483 345T504 345T521 355Q532 363 543 371T564 380Q570 380 573 374Q582 360 554 329T452 264Q437 257 446 234Q458 208 475 195T510 185Q524 187 532 186T549 176T557 145Q557 123 542 100Q526 77 505 74T449 96Q437 104 422 106T394 97Q387 91 387 80Q387
70 404 50Q431 15 459 2T513 -11Q546 -11 573 3T621 56Q639 90 637 131T604 207Q596 216 588 221T569 230Z" />
<glyph unicode="&#xe0;" glyph-name="agrave" horiz-adv-x="383" d="M217 62Q219 52 219 49Q221 23 228 13T250 -5Q264 -12 277 -13T305 -14Q325 -14 330 -7T336 21Q333 77 331 138T326 261T323 379T322 485Q322 504 322 520T323 552V558Q323 576 317 588T294
609Q291 611 288 611T281 614Q262 621 240 627T185 636H178Q155 636 144 624T125 595Q104 546 80 481T33 346T-12 209T-48 90Q-50 81 -51 73T-52 59Q-52 44 -47 37T-34 21L-29 15Q-24 10 -18 7T-5 -1Q0 -3 1 -4T4 -6Q10 -9 14 -11T24 -13Q39 -13 47 11Q49 19 52
26T58 42Q63 60 68 78T81 116Q101 123 127 128T185 141Q191 142 197 143T210 146Q212 123 213 102T217 62ZM98 785Q111 773 129 759T170 731T215 704T260 681Q267 677 276 677Q292 677 316 693L303 708Q304 709 308 712T316 719T324 724T329 722Q327 736 318 745Q280
768 242 793T175 847Q165 857 152 857Q144 857 136 855T117 844T102 824T95 793L98 785ZM199 447Q199 408 200 368T203 286Q185 284 169 282T136 276Q153 323 168 366T199 447Z" />
<glyph unicode="&#xe1;" glyph-name="aacute" horiz-adv-x="383" d="M217 62Q219 52 219 49Q221 23 228 13T250 -5Q264 -12 277 -13T305 -14Q325 -14 330 -7T336 21Q333 77 331 138T326 261T323 379T322 485Q322 504 322 520T323 552V558Q323 576 317 588T294
609Q291 611 288 611T281 614Q262 621 240 627T185 636H178Q155 636 144 624T125 595Q104 546 80 481T33 346T-12 209T-48 90Q-50 81 -51 73T-52 59Q-52 44 -47 37T-34 21L-29 15Q-24 10 -18 7T-5 -1Q0 -3 1 -4T4 -6Q10 -9 14 -11T24 -13Q39 -13 47 11Q49 19 52
26T58 42Q63 60 68 78T81 116Q101 123 127 128T185 141Q191 142 197 143T210 146Q212 123 213 102T217 62ZM341 789Q339 808 335 820T319 840Q299 853 284 853Q271 853 261 843Q233 814 195 789T118 741Q107 731 107 718Q108 721 112 720T120 715T128 709T133 704L120
689Q144 673 160 673Q169 673 176 677Q198 687 221 700T266 727T306 755T338 781L341 789ZM199 447Q199 408 200 368T203 286Q185 284 169 282T136 276Q153 323 168 366T199 447Z" />
<glyph unicode="&#xe2;" glyph-name="acircumflex" horiz-adv-x="383" d="M217 62Q219 52 219 49Q221 23 228 13T250 -5Q264 -12 277 -13T305 -14Q325 -14 330 -7T336 21Q333 77 331 138T326 261T323 379T322 485Q322 504 322 520T323 552V558Q323 576 317 588T294
609Q291 611 288 611T281 614Q262 621 240 627T185 636H178Q155 636 144 624T125 595Q104 546 80 481T33 346T-12 209T-48 90Q-50 81 -51 73T-52 59Q-52 44 -47 37T-34 21L-29 15Q-24 10 -18 7T-5 -1Q0 -3 1 -4T4 -6Q10 -9 14 -11T24 -13Q39 -13 47 11Q49 19 52
26T58 42Q63 60 68 78T81 116Q101 123 127 128T185 141Q191 142 197 143T210 146Q212 123 213 102T217 62ZM307 667H310Q320 667 324 670T329 685Q329 687 329 689T328 694Q325 709 321 728T312 769T304 813T297 854Q296 865 293 871T286 884V887Q277 898 268 906Q266
908 263 910T258 915Q251 921 242 921Q229 921 221 907L222 908Q209 892 196 873T172 835T150 799T133 768Q129 761 129 752Q129 747 130 742T134 731Q145 712 154 701L153 702Q162 690 171 690Q182 690 188 704V703Q190 707 192 710T197 717H196Q204 731 213 745T233
775Q234 773 234 772Q234 771 235 769Q240 749 243 734T249 706Q254 692 260 683T277 672L276 673Q286 669 292 668T307 667ZM199 447Q199 408 200 368T203 286Q185 284 169 282T136 276Q153 323 168 366T199 447Z" />
<glyph unicode="&#xe3;" glyph-name="atilde" horiz-adv-x="383" d="M217 62Q219 52 219 49Q221 23 228 13T250 -5Q264 -12 277 -13T305 -14Q325 -14 330 -7T336 21Q333 77 331 138T326 261T323 379T322 485Q322 504 322 520T323 552V558Q323 576 317 588T294
609Q291 611 288 611T281 614Q262 621 240 627T185 636H178Q155 636 144 624T125 595Q104 546 80 481T33 346T-12 209T-48 90Q-50 81 -51 73T-52 59Q-52 44 -47 37T-34 21L-29 15Q-24 10 -18 7T-5 -1Q0 -3 1 -4T4 -6Q10 -9 14 -11T24 -13Q39 -13 47 11Q49 19 52
26T58 42Q63 60 68 78T81 116Q101 123 127 128T185 141Q191 142 197 143T210 146Q212 123 213 102T217 62ZM269 682Q297 682 329 714Q347 731 355 746T364 773Q364 788 349 800Q338 807 324 807Q309 807 295 793Q292 790 290 787Q285 782 280 774T275 766Q265 767
257 771T240 781Q235 784 230 787T219 793Q206 799 195 802T171 805Q161 805 146 799T117 782T90 761T73 740Q68 729 68 716Q68 683 102 683Q120 683 132 693Q134 694 136 696T141 701Q146 706 152 712T161 718Q170 718 186 713T210 701Q228 682 269 682ZM199 447Q199
408 200 368T203 286Q185 284 169 282T136 276Q153 323 168 366T199 447Z" />
<glyph unicode="&#xe4;" glyph-name="adieresis" horiz-adv-x="383" d="M217 62Q219 52 219 49Q221 23 228 13T250 -5Q264 -12 277 -13T305 -14Q325 -14 330 -7T336 21Q333 77 331 138T326 261T323 379T322 485Q322 504 322 520T323 552V558Q323 576 317 588T294
609Q291 611 288 611T281 614Q262 621 240 627T185 636H178Q155 636 144 624T125 595Q104 546 80 481T33 346T-12 209T-48 90Q-50 81 -51 73T-52 59Q-52 44 -47 37T-34 21L-29 15Q-24 10 -18 7T-5 -1Q0 -3 1 -4T4 -6Q10 -9 14 -11T24 -13Q39 -13 47 11Q49 19 52
26T58 42Q63 60 68 78T81 116Q101 123 127 128T185 141Q191 142 197 143T210 146Q212 123 213 102T217 62ZM240 739V733Q240 704 254 687T291 669H294Q305 669 314 674T329 687T338 703T344 718V720Q345 724 345 728T346 738Q346 754 337 770T310 795Q301 799 291
799Q268 799 255 781T240 739ZM100 739V736Q100 707 115 689T151 670H154Q165 670 173 675T188 688T199 704T204 719Q207 726 207 738Q207 755 198 771T170 796Q161 800 151 800Q129 800 116 782T100 739ZM199 447Q199 408 200 368T203 286Q185 284 169 282T136
276Q153 323 168 366T199 447Z" />
<glyph unicode="&#xe5;" glyph-name="aring" horiz-adv-x="383" d="M217 62Q219 52 219 49Q221 23 228 13T250 -5Q264 -12 277 -13T305 -14Q325 -14 330 -7T336 21Q333 77 331 138T326 261T323 379T322 485Q322 504 322 520T323 552V558Q323 576 317 588T294 609Q291
611 288 611T281 614Q262 621 240 627T185 636H178Q155 636 144 624T125 595Q104 546 80 481T33 346T-12 209T-48 90Q-50 81 -51 73T-52 59Q-52 44 -47 37T-34 21L-29 15Q-24 10 -18 7T-5 -1Q0 -3 1 -4T4 -6Q10 -9 14 -11T24 -13Q39 -13 47 11Q49 19 52 26T58 42Q63
60 68 78T81 116Q101 123 127 128T185 141Q191 142 197 143T210 146Q212 123 213 102T217 62ZM306 848Q296 853 283 857T254 863Q252 863 250 863T245 864Q234 864 223 861T202 852Q171 832 154 798T137 732Q137 718 139 706T148 684Q153 676 161 670T178 659H177Q188
653 201 651T225 648Q228 648 232 648T239 647Q253 647 264 650T286 661Q314 684 326 717T339 781Q339 789 339 795T337 806Q332 821 326 831T307 848H306ZM199 447Q199 408 200 368T203 286Q185 284 169 282T136 276Q153 323 168 366T199 447ZM263 790Q263 781
261 771T256 750Q249 728 240 713T222 698Q220 698 219 699Q215 700 215 719Q215 737 222 756Q229 773 240 790T259 809Q263 806 263 790Z" />
<glyph unicode="&#xe6;" glyph-name="ae" horiz-adv-x="563" d="M379 610Q376 611 374 612T368 614L370 613Q352 621 331 628T275 637H269Q248 637 235 626T210 597Q183 549 150 485T82 351T17 213T-37 92Q-43 78 -45 69T-47 53Q-47 41 -43 35T-34 22L-35 25Q-33
21 -29 17Q-24 12 -14 5T5 -7Q15 -12 20 -12Q29 -12 34 -7T45 9Q46 11 47 15T50 21V20Q60 43 71 66T96 116Q116 124 142 129T197 140Q204 142 211 143T226 146Q224 126 222 113T218 88Q214 68 214 50V44Q214 21 223 12T246 -3Q252 -8 264 -9T291 -11Q305 -11 317
-10T335 -7Q367 2 402 12T472 32Q486 37 491 42T497 60Q497 65 497 67T495 75Q493 79 492 84T489 94L490 93Q488 101 485 110T475 135Q465 163 439 163Q437 163 434 163T429 162Q406 160 387 158T349 150Q351 161 353 172T357 197L360 215Q384 223 409 229T460
242Q465 243 469 244T479 246Q492 250 498 255T504 273Q504 280 501 291V290Q498 305 495 318T483 348V347Q477 364 469 370T444 376H439Q426 375 415 375T391 372Q395 387 397 401T403 429Q405 443 408 456T415 482Q436 487 456 490T496 496Q504 498 513 498T531
501Q546 503 552 509T558 530V539Q557 541 556 546T554 554L555 553Q553 564 550 574T541 600V599Q531 633 501 633H497Q463 631 435 625T381 609Q380 610 379 610ZM262 443Q257 405 252 366T242 287Q208 284 175 278Q198 323 220 364T262 443Z" />
<glyph unicode="&#xe7;" glyph-name="ccedilla" horiz-adv-x="342" d="M87 -157Q94 -146 102 -130T117 -95T132 -58T143 -23V-22Q164 -20 184 -11T218 12Q234 29 249 54T273 108Q276 118 278 127T280 145Q280 171 253 184Q236 191 221 191Q186 191 162 154Q130
103 113 103Q111 103 110 104Q102 108 98 129T94 182Q94 211 97 244T108 310Q114 340 124 374T145 438T167 487T187 509Q193 506 194 491T195 458V445Q195 442 195 438T196 430Q201 394 217 373T269 341Q272 340 275 340T283 339Q299 339 303 348T310 369Q313 386
315 411T317 461Q317 470 317 479Q317 488 316 496Q314 523 308 544T279 587Q259 604 230 619T173 638H164Q146 638 126 631T86 601Q58 569 36 523T-3 425T-27 316T-36 209Q-36 172 -32 139T-16 79L-17 80Q-10 57 5 39T37 10L35 11L38 8Q32 -11 25 -31T11 -71T-2
-108T-13 -138V-137Q-17 -145 -17 -154Q-17 -174 7 -182Q14 -184 20 -185T36 -186Q38 -186 41 -186Q44 -186 49 -184L47 -185Q71 -183 87 -157ZM188 509Q189 509 189 509T191 508L187 509H188Z" />
<glyph unicode="&#xe8;" glyph-name="egrave" horiz-adv-x="308" d="M26 579L-35 117V106Q-35 86 -30 72T-17 47Q-6 33 1 24T19 5Q25 -2 34 -7T55 -12Q60 -12 67 -11T82 -6L81 -7Q113 2 148 12T217 32Q231 37 236 42T242 60Q242 65 242 67T240 75Q238 79 237 84T234
94L235 93Q233 101 230 110T220 135Q210 163 184 163Q182 163 179 163T174 162Q151 160 132 158T93 150L94 152Q96 167 99 182T105 215Q129 223 154 229T205 242Q210 243 214 244T224 246Q237 250 243 255T249 273Q249 280 245 291L246 290Q243 305 240 318T228
348V347Q222 364 213 370T189 376H184Q170 375 158 375Q147 375 136 373Q141 393 145 412T153 451Q155 459 156 466T159 482Q181 487 200 490T240 496Q249 498 258 498T276 501Q291 503 297 509T303 530V539Q302 541 301 546T299 554L300 553Q298 564 295 574T286
600V599Q276 633 245 633H241Q186 630 131 616T33 587L26 579ZM63 781Q76 769 94 755T134 727T179 700T225 677Q232 673 241 673Q259 673 280 689L264 697Q264 697 268 698T279 702T289 708T294 716Q294 730 282 741Q245 764 206 789T140 843Q130 853 116 853Q109
853 101 851T82 840T67 820T60 789L63 781Z" />
<glyph unicode="&#xe9;" glyph-name="eacute" horiz-adv-x="308" d="M26 579L-35 117V106Q-35 86 -30 72T-17 47Q-6 33 1 24T19 5Q25 -2 34 -7T55 -12Q60 -12 67 -11T82 -6L81 -7Q113 2 148 12T217 32Q231 37 236 42T242 60Q242 65 242 67T240 75Q238 79 237 84T234
94L235 93Q233 101 230 110T220 135Q210 163 184 163Q182 163 179 163T174 162Q151 160 132 158T93 150L94 152Q96 167 99 182T105 215Q129 223 154 229T205 242Q210 243 214 244T224 246Q237 250 243 255T249 273Q249 280 245 291L246 290Q243 305 240 318T228
348V347Q222 364 213 370T189 376H184Q170 375 158 375Q147 375 136 373Q141 393 145 412T153 451Q155 459 156 466T159 482Q181 487 200 490T240 496Q249 498 258 498T276 501Q291 503 297 509T303 530V539Q302 541 301 546T299 554L300 553Q298 564 295 574T286
600V599Q276 633 245 633H241Q186 630 131 616T33 587L26 579ZM294 789Q292 808 288 820T272 840Q252 853 237 853Q224 853 214 843Q185 814 147 789T71 741Q60 731 60 718Q61 721 65 720T73 715T81 709T86 704L73 689Q97 673 113 673Q122 673 129 677Q151 687
174 700T219 727T259 755T291 781L294 789Z" />
<glyph unicode="&#xea;" glyph-name="ecircumflex" horiz-adv-x="308" d="M26 579L-35 117V106Q-35 86 -30 72T-17 47Q-6 33 1 24T19 5Q25 -2 34 -7T55 -12Q60 -12 67 -11T82 -6L81 -7Q113 2 148 12T217 32Q231 37 236 42T242 60Q242 65 242 67T240 75Q238 79
237 84T234 94L235 93Q233 101 230 110T220 135Q210 163 184 163Q182 163 179 163T174 162Q151 160 132 158T93 150L94 152Q96 167 99 182T105 215Q129 223 154 229T205 242Q210 243 214 244T224 246Q237 250 243 255T249 273Q249 280 245 291L246 290Q243 305
240 318T228 348V347Q222 364 213 370T189 376H184Q170 375 158 375Q147 375 136 373Q141 393 145 412T153 451Q155 459 156 466T159 482Q181 487 200 490T240 496Q249 498 258 498T276 501Q291 503 297 509T303 530V539Q302 541 301 546T299 554L300 553Q298 564
295 574T286 600V599Q276 633 245 633H241Q186 630 131 616T33 587L26 579ZM263 665H266Q276 665 280 668T285 683Q285 685 285 687T284 692Q281 707 277 727T268 768T260 811T253 852Q252 864 249 870T240 886Q239 886 239 888H240Q236 893 233 896T225 902Q222
904 219 907T214 912Q210 915 207 917T198 919Q187 919 178 906Q165 890 152 871T128 833T106 797T89 766Q85 759 85 749Q85 737 90 728Q101 709 110 698V699Q115 693 118 691T127 688Q138 688 144 701V700Q146 704 148 707T153 716Q161 729 170 743T190 773Q190
770 192 764Q196 744 199 730T205 703Q216 674 233 670L232 671Q242 667 248 666T263 665Z" />
<glyph unicode="&#xeb;" glyph-name="edieresis" horiz-adv-x="308" d="M26 579L-35 117V106Q-35 86 -30 72T-17 47Q-6 33 1 24T19 5Q25 -2 34 -7T55 -12Q60 -12 67 -11T82 -6L81 -7Q113 2 148 12T217 32Q231 37 236 42T242 60Q242 65 242 67T240 75Q238 79 237
84T234 94L235 93Q233 101 230 110T220 135Q210 163 184 163Q182 163 179 163T174 162Q151 160 132 158T93 150L94 152Q96 167 99 182T105 215Q129 223 154 229T205 242Q210 243 214 244T224 246Q237 250 243 255T249 273Q249 280 245 291L246 290Q243 305 240
318T228 348V347Q222 364 213 370T189 376H184Q170 375 158 375Q147 375 136 373Q141 393 145 412T153 451Q155 459 156 466T159 482Q181 487 200 490T240 496Q249 498 258 498T276 501Q291 503 297 509T303 530V539Q302 541 301 546T299 554L300 553Q298 564 295
574T286 600V599Q276 633 245 633H241Q186 630 131 616T33 587L26 579ZM183 734V727Q183 698 197 682T233 665H236Q247 665 256 670T271 683T281 699T287 714Q288 719 288 723Q288 728 288 734Q288 750 280 766T252 791Q243 795 233 795Q210 795 197 777T183 734ZM43
735V729Q43 700 57 683T93 666H96Q107 666 116 671T131 684T141 700T147 715Q148 719 148 723T149 734Q149 751 141 767T112 792Q103 796 93 796Q71 796 58 778T43 735Z" />
<glyph unicode="&#xec;" glyph-name="igrave" horiz-adv-x="166" d="M135 583Q121 595 104 605T70 621H71Q63 625 53 625Q41 625 35 618T24 594Q18 564 12 522T-1 431T-15 331T-27 233T-37 144T-42 76V64Q-42 46 -38 36T-20 16Q-9 7 4 1T32 -11Q40 -15 48 -15Q59
-15 64 -9T72 13Q79 66 89 136T110 279T133 417T154 527Q155 532 155 536T156 545Q156 557 151 564T135 583ZM-29 796Q-16 785 2 772T42 744T87 717T132 694Q139 690 149 690Q158 690 167 694T188 706L175 721Q176 722 180 726T188 733T196 738T201 736Q200 747
190 758Q152 781 113 806T47 859Q36 870 24 870Q11 870 -11 856L-10 857Q-21 850 -26 838T-33 805L-29 796Z" />
<glyph unicode="&#xed;" glyph-name="iacute" horiz-adv-x="166" d="M135 583Q121 595 104 605T70 621H71Q63 625 53 625Q41 625 35 618T24 594Q18 564 12 522T-1 431T-15 331T-27 233T-37 144T-42 76V64Q-42 46 -38 36T-20 16Q-9 7 4 1T32 -11Q40 -15 48 -15Q59
-15 64 -9T72 13Q79 66 89 136T110 279T133 417T154 527Q155 532 155 536T156 545Q156 557 151 564T135 583ZM236 790Q234 810 229 822T212 842Q193 855 179 855Q166 855 155 844Q128 817 90 792T14 744Q1 732 1 721Q2 725 6 724T14 719T23 711T28 706L15 691Q26
683 35 679T53 674Q65 674 72 680Q94 690 117 703T161 729T200 756T232 781L236 790Z" />
<glyph unicode="&#xee;" glyph-name="icircumflex" horiz-adv-x="166" d="M135 583Q121 595 104 605T70 621H71Q63 625 53 625Q41 625 35 618T24 594Q18 564 12 522T-1 431T-15 331T-27 233T-37 144T-42 76V64Q-42 46 -38 36T-20 16Q-9 7 4 1T32 -11Q40 -15 48
-15Q59 -15 64 -9T72 13Q79 66 89 136T110 279T133 417T154 527Q155 532 155 536T156 545Q156 557 151 564T135 583ZM186 661H189Q199 661 203 664T207 679Q207 681 207 683T206 688Q203 703 199 722T190 763T183 806T176 848Q174 862 172 868T162 884Q158 889
155 892T147 898Q144 900 141 903T136 908Q132 911 129 913T120 915Q109 915 100 902Q87 886 74 867T50 829T28 793T12 762Q7 754 7 745Q7 735 13 725Q18 714 22 708T32 695T40 687T50 684Q60 684 67 696Q88 731 112 769Q114 763 114 758T117 747Q120 730 123 714T128
693Q135 671 156 666H155Q169 661 186 661Z" />
<glyph unicode="&#xef;" glyph-name="idieresis" horiz-adv-x="166" d="M135 583Q121 595 104 605T70 621H71Q63 625 53 625Q41 625 35 618T24 594Q18 564 12 522T-1 431T-15 331T-27 233T-37 144T-42 76V64Q-42 46 -38 36T-20 16Q-9 7 4 1T32 -11Q40 -15 48 -15Q59
-15 64 -9T72 13Q79 66 89 136T110 279T133 417T154 527Q155 532 155 536T156 545Q156 557 151 564T135 583ZM115 734V727Q115 698 129 682T165 665H168Q179 665 188 670T203 683T213 699T219 714Q220 719 220 723Q220 728 220 734Q220 750 212 766T184 791Q175
795 165 795Q142 795 129 777T115 734ZM-25 735V729Q-25 700 -11 683T25 666H28Q39 666 48 671T63 684T73 700T79 715Q80 719 80 723T81 734Q81 751 73 767T44 792Q35 796 25 796Q3 796 -10 778T-25 735Z" />
<glyph unicode="&#xf0;" glyph-name="eth" horiz-adv-x="408" d="M114 635Q85 627 104 581Q108 571 110 569T114 565T119 561T129 548Q142 527 153 521T177 520Q181 521 191 525Q194 489 194 452Q163 467 128 464Q72 460 42 435T-10 369T-42 287T-57 205T-56 131T-42
73Q-35 58 -25 45T2 21T42 6T100 1Q166 7 206 41T277 142Q292 175 306 219T330 316T344 430T343 555Q355 557 367 557T391 560Q407 561 411 568T408 597Q405 606 404 608T403 611T401 616T394 630Q375 667 348 667Q342 667 336 667Q331 667 325 666Q320 692 313
715Q306 735 300 742T275 754Q255 756 229 757T186 755Q166 750 159 741T157 709Q166 679 172 649Q155 645 141 642T114 635ZM179 252Q166 191 150 155T114 114Q90 109 79 141T75 230Q80 278 94 311T129 346Q149 348 164 322T179 252Z" />
<glyph unicode="&#xf1;" glyph-name="ntilde" horiz-adv-x="374" d="M179 525Q176 552 169 566T144 590V589Q129 600 114 606T84 618Q82 619 80 620T75 622H76Q68 626 59 626Q36 626 27 592Q20 559 13 514T-1 419T-14 318T-26 222T-36 139T-41 81V82Q-42 77 -42
73Q-42 69 -42 65Q-42 48 -37 39T-21 20Q-11 10 1 4T28 -7Q31 -8 31 -8T32 -8Q43 -12 49 -12Q61 -12 65 -6T71 14Q75 47 81 91T94 185Q97 207 100 230T107 276Q118 216 130 162T154 69V70Q159 50 169 36T192 15Q206 8 218 3T244 -7L243 -6Q248 -8 251 -8T259 -9Q286
-9 288 23Q290 34 291 45T294 69Q301 124 310 186T328 311T345 431T362 532Q363 537 363 542T364 552Q364 564 360 573T343 593Q334 601 327 606T315 614T303 619T289 623L290 622Q282 626 273 626Q250 626 244 594Q234 540 224 475T204 338Q196 395 189 446T179
525ZM269 682Q297 682 329 714Q347 731 355 746T364 773Q364 788 349 800Q338 807 324 807Q309 807 295 793Q292 790 290 787Q285 782 280 774T275 766Q265 767 257 771T240 781Q235 784 230 787T219 793Q206 799 195 802T171 805Q161 805 146 799T117 782T90 761T73
740Q68 729 68 716Q68 683 102 683Q120 683 132 693Q134 694 136 696T141 701Q146 706 152 712T161 718Q170 718 186 713T210 701Q228 682 269 682Z" />
<glyph unicode="&#xf2;" glyph-name="ograve" horiz-adv-x="370" d="M279 580Q261 599 236 611T183 629Q180 630 176 630Q172 630 168 630Q148 630 128 622T92 596Q64 565 43 523T6 432T-16 333T-24 233Q-24 195 -20 160T-4 94H-5Q3 71 17 52T47 20Q66 6 88 -1T132
-12Q137 -13 142 -13T154 -14Q202 -14 239 29Q263 62 280 104T308 193T324 290T330 386Q330 438 324 482Q319 513 309 536T279 580ZM194 501Q201 499 204 475T207 415Q207 383 204 348T195 282Q189 245 181 213T163 156T144 119T125 105Q123 105 122 106Q112 111
108 134T104 192Q104 222 107 255T118 321Q124 351 134 383T154 441T175 484T194 501ZM63 781Q76 769 94 755T134 727T179 700T225 677Q232 673 241 673Q259 673 280 689L264 697Q264 697 268 698T279 702T289 708T294 716Q294 730 282 741Q245 764 206 789T140
843Q130 853 116 853Q109 853 101 851T82 840T67 820T60 789L63 781Z" />
<glyph unicode="&#xf3;" glyph-name="oacute" horiz-adv-x="370" d="M279 580Q261 599 236 611T183 629Q180 630 176 630Q172 630 168 630Q148 630 128 622T92 596Q64 565 43 523T6 432T-16 333T-24 233Q-24 195 -20 160T-4 94H-5Q3 71 17 52T47 20Q66 6 88 -1T132
-12Q137 -13 142 -13T154 -14Q202 -14 239 29Q263 62 280 104T308 193T324 290T330 386Q330 438 324 482Q319 513 309 536T279 580ZM194 501Q201 499 204 475T207 415Q207 383 204 348T195 282Q189 245 181 213T163 156T144 119T125 105Q123 105 122 106Q112 111
108 134T104 192Q104 222 107 255T118 321Q124 351 134 383T154 441T175 484T194 501ZM294 789Q292 808 288 820T272 840Q252 853 237 853Q224 853 214 843Q185 814 147 789T71 741Q60 731 60 718Q61 721 65 720T73 715T81 709T86 704L73 689Q97 673 113 673Q122
673 129 677Q151 687 174 700T219 727T259 755T291 781L294 789Z" />
<glyph unicode="&#xf4;" glyph-name="ocircumflex" horiz-adv-x="370" d="M279 580Q261 599 236 611T183 629Q180 630 176 630Q172 630 168 630Q148 630 128 622T92 596Q64 565 43 523T6 432T-16 333T-24 233Q-24 195 -20 160T-4 94H-5Q3 71 17 52T47 20Q66 6
88 -1T132 -12Q137 -13 142 -13T154 -14Q202 -14 239 29Q263 62 280 104T308 193T324 290T330 386Q330 438 324 482Q319 513 309 536T279 580ZM290 651H293Q303 651 307 654T312 669Q312 671 312 673T311 678Q304 708 295 753T280 838Q279 853 276 859T267 874Q261
884 251 890Q249 892 246 894T241 899Q234 905 225 905Q212 905 204 891L205 892Q192 877 180 858T156 821T134 785T118 754Q112 747 112 735Q112 722 117 715Q128 696 137 685L136 686Q145 674 154 674Q165 674 171 688V687Q173 691 175 694T180 701H179Q187 715
196 729T216 759Q217 757 217 756Q217 755 218 753Q223 733 226 718T232 690Q243 659 260 656L259 657Q269 653 276 652T290 651ZM194 501Q201 499 204 475T207 415Q207 383 204 348T195 282Q189 245 181 213T163 156T144 119T125 105Q123 105 122 106Q112 111
108 134T104 192Q104 222 107 255T118 321Q124 351 134 383T154 441T175 484T194 501Z" />
<glyph unicode="&#xf5;" glyph-name="otilde" horiz-adv-x="370" d="M279 580Q261 599 236 611T183 629Q180 630 176 630Q172 630 168 630Q148 630 128 622T92 596Q64 565 43 523T6 432T-16 333T-24 233Q-24 195 -20 160T-4 94H-5Q3 71 17 52T47 20Q66 6 88 -1T132
-12Q137 -13 142 -13T154 -14Q202 -14 239 29Q263 62 280 104T308 193T324 290T330 386Q330 438 324 482Q319 513 309 536T279 580ZM269 682Q297 682 329 714Q347 731 355 746T364 773Q364 788 349 800Q338 807 324 807Q309 807 295 793Q292 790 290 787Q285 782
280 774T275 766Q265 767 257 771T240 781Q235 784 230 787T219 793Q206 799 195 802T171 805Q161 805 146 799T117 782T90 761T73 740Q68 729 68 716Q68 683 102 683Q120 683 132 693Q134 694 136 696T141 701Q146 706 152 712T161 718Q170 718 186 713T210 701Q228
682 269 682ZM194 501Q201 499 204 475T207 415Q207 383 204 348T195 282Q189 245 181 213T163 156T144 119T125 105Q123 105 122 106Q112 111 108 134T104 192Q104 222 107 255T118 321Q124 351 134 383T154 441T175 484T194 501Z" />
<glyph unicode="&#xf6;" glyph-name="odieresis" horiz-adv-x="370" d="M279 580Q261 599 236 611T183 629Q180 630 176 630Q172 630 168 630Q148 630 128 622T92 596Q64 565 43 523T6 432T-16 333T-24 233Q-24 195 -20 160T-4 94H-5Q3 71 17 52T47 20Q66 6 88
-1T132 -12Q137 -13 142 -13T154 -14Q202 -14 239 29Q263 62 280 104T308 193T324 290T330 386Q330 438 324 482Q319 513 309 536T279 580ZM194 501Q201 499 204 475T207 415Q207 383 204 348T195 282Q189 245 181 213T163 156T144 119T125 105Q123 105 122 106Q112
111 108 134T104 192Q104 222 107 255T118 321Q124 351 134 383T154 441T175 484T194 501ZM210 735V729Q210 700 224 683T260 665H263Q274 665 283 670T298 683T308 699T314 714V716Q315 720 315 724T316 734Q316 750 307 766T279 791Q270 795 260 795Q238 795
225 777T210 735ZM70 735V729Q70 700 84 683T120 666H123Q134 666 143 671T158 684T169 700T174 715Q176 720 176 724Q176 729 176 734Q176 751 168 767T139 792Q130 796 120 796Q98 796 85 778T70 735Z" />
<glyph unicode="&#xf7;" glyph-name="divide" horiz-adv-x="488" d="M406 320Q420 320 424 326T423 350Q418 365 414 379T401 411Q387 441 361 441Q316 440 286 439T232 436T191 431T151 422T102 411T34 396Q23 394 15 386T11 360T26 321T46 284Q57 269 65 266T88
266Q131 277 157 285T202 298T236 308T272 314T324 318T406 320ZM173 588Q171 542 192 515T245 490Q260 490 272 497T292 515T306 538T313 559Q316 572 316 588Q316 611 304 634T265 669Q245 677 229 673T200 657T181 627T173 588ZM146 164Q144 118 165 91T218
66Q233 66 245 73T265 91T279 114T286 135Q289 148 289 164Q289 187 277 210T238 245Q218 253 202 249T173 233T154 203T146 164Z" />
<glyph unicode="&#xf8;" glyph-name="oslash" horiz-adv-x="370" d="M336 657Q322 671 319 674T312 680Q300 690 289 690Q271 690 261 667Q257 659 253 649T243 626Q241 622 240 618T237 610Q214 621 183 629Q180 630 176 630Q172 630 168 630Q148 630 128 622T92
596Q64 565 43 523T6 432T-16 333T-24 233Q-24 195 -20 160T-4 94H-5Q-1 80 6 68T21 46Q16 33 12 23T6 6Q4 -2 3 -9T1 -24V-30Q3 -45 9 -54V-55L14 -60Q24 -69 35 -69Q52 -69 59 -44V-45Q60 -43 60 -43T60 -42Q63 -33 67 -22T76 3Q90 -2 104 -6T132 -12Q137 -13
142 -13T154 -14Q202 -14 239 29Q263 62 280 104T308 193T324 290T330 386Q330 438 324 482Q320 501 315 517T301 548Q306 561 310 572T320 592Q322 597 323 600T327 608Q331 616 333 621T335 634Q335 644 327 657H336ZM195 282Q189 245 181 213T163 156T144 119T125
105Q123 105 122 106Q121 106 119 108Q135 150 153 195T191 286Q193 291 195 296T199 306Q198 300 197 294T195 282ZM114 302Q115 307 115 311T118 321Q124 349 132 379T151 434T171 477T189 500L190 499Q172 454 153 404T114 302Z" />
<glyph unicode="&#xf9;" glyph-name="ugrave" horiz-adv-x="361" d="M-9 89Q-1 63 11 47T36 20Q69 -9 121 -13Q125 -13 129 -13T137 -14Q157 -14 174 -8T208 11Q235 35 255 83T291 198T319 351T343 534V533Q344 538 344 542Q344 546 344 550Q344 561 340 569T323
588Q305 602 284 615T246 628Q218 628 217 595Q212 557 206 506T192 401T175 294T155 200T134 133T111 107H110Q103 110 101 125T98 163Q98 196 103 239T117 330T135 423T154 506L153 505Q155 512 155 516T156 526Q156 557 134 579Q121 591 108 600T80 615Q70 620
61 620Q50 620 43 614T32 590Q22 546 12 497T-7 398T-20 299T-26 206Q-26 171 -22 142T-9 89ZM63 781Q76 769 94 755T134 727T179 700T225 677Q232 673 241 673Q259 673 280 689L264 697Q264 697 268 698T279 702T289 708T294 716Q294 730 282 741Q245 764 206
789T140 843Q130 853 116 853Q109 853 101 851T82 840T67 820T60 789L63 781Z" />
<glyph unicode="&#xfa;" glyph-name="uacute" horiz-adv-x="361" d="M-9 89Q-1 63 11 47T36 20Q69 -9 121 -13Q125 -13 129 -13T137 -14Q157 -14 174 -8T208 11Q235 35 255 83T291 198T319 351T343 534V533Q344 538 344 542Q344 546 344 550Q344 561 340 569T323
588Q305 602 284 615T246 628Q218 628 217 595Q212 557 206 506T192 401T175 294T155 200T134 133T111 107H110Q103 110 101 125T98 163Q98 196 103 239T117 330T135 423T154 506L153 505Q155 512 155 516T156 526Q156 557 134 579Q121 591 108 600T80 615Q70 620
61 620Q50 620 43 614T32 590Q22 546 12 497T-7 398T-20 299T-26 206Q-26 171 -22 142T-9 89ZM294 789Q292 808 288 820T272 840Q252 853 237 853Q224 853 214 843Q185 814 147 789T71 741Q60 731 60 718Q61 721 65 720T73 715T81 709T86 704L73 689Q97 673 113
673Q122 673 129 677Q151 687 174 700T219 727T259 755T291 781L294 789Z" />
<glyph unicode="&#xfb;" glyph-name="ucircumflex" horiz-adv-x="361" d="M-9 89Q-1 63 11 47T36 20Q69 -9 121 -13Q125 -13 129 -13T137 -14Q157 -14 174 -8T208 11Q235 35 255 83T291 198T319 351T343 534V533Q344 538 344 542Q344 546 344 550Q344 561 340
569T323 588Q305 602 284 615T246 628Q218 628 217 595Q212 557 206 506T192 401T175 294T155 200T134 133T111 107H110Q103 110 101 125T98 163Q98 196 103 239T117 330T135 423T154 506L153 505Q155 512 155 516T156 526Q156 557 134 579Q121 591 108 600T80
615Q70 620 61 620Q50 620 43 614T32 590Q22 546 12 497T-7 398T-20 299T-26 206Q-26 171 -22 142T-9 89ZM263 665H266Q276 665 280 668T285 683Q285 685 285 687T284 692Q281 707 277 727T268 768T260 811T253 852Q252 864 249 870T240 886Q239 886 239 888H240Q236
893 233 896T225 902Q222 904 219 907T214 912Q210 915 207 917T198 919Q187 919 178 906Q165 890 152 871T128 833T106 797T89 766Q85 759 85 749Q85 737 90 728Q101 709 110 698V699Q115 693 118 691T127 688Q138 688 144 701V700Q146 704 148 707T153 716Q161
729 170 743T190 773Q190 770 192 764Q196 744 199 730T205 703Q216 674 233 670L232 671Q242 667 248 666T263 665Z" />
<glyph unicode="&#xfc;" glyph-name="udieresis" horiz-adv-x="361" d="M-9 89Q-1 63 11 47T36 20Q69 -9 121 -13Q125 -13 129 -13T137 -14Q157 -14 174 -8T208 11Q235 35 255 83T291 198T319 351T343 534V533Q344 538 344 542Q344 546 344 550Q344 561 340 569T323
588Q305 602 284 615T246 628Q218 628 217 595Q212 557 206 506T192 401T175 294T155 200T134 133T111 107H110Q103 110 101 125T98 163Q98 196 103 239T117 330T135 423T154 506L153 505Q155 512 155 516T156 526Q156 557 134 579Q121 591 108 600T80 615Q70 620
61 620Q50 620 43 614T32 590Q22 546 12 497T-7 398T-20 299T-26 206Q-26 171 -22 142T-9 89ZM206 735V729Q206 700 220 683T256 665H259Q270 665 279 670T294 683T304 699T310 714V716Q311 720 311 724T312 734Q312 750 303 766T275 791Q266 795 256 795Q234 795
221 777T206 735ZM66 735V729Q66 700 80 683T116 666H119Q130 666 139 671T154 684T165 700T170 715Q172 720 172 724Q172 729 172 734Q172 751 164 767T135 792Q126 796 116 796Q94 796 81 778T66 735Z" />
<glyph unicode="&#xfd;" glyph-name="yacute" horiz-adv-x="347" d="M332 522Q339 542 339 553Q339 571 327 587Q321 594 313 603T295 619T277 632T261 637Q252 637 246 632T236 613L237 615Q232 604 229 595T220 574Q203 532 186 492T150 409Q139 457 130 496T113
570Q104 596 96 609T71 627Q57 632 42 632Q35 632 29 632T18 630Q16 630 15 630T12 629Q-2 627 -7 622T-13 604Q-13 595 -10 585V586Q1 528 17 455T51 307Q55 290 58 273T66 239Q61 205 59 174T53 115Q51 103 51 92T48 70V71Q47 66 47 62Q47 58 47 54Q47 39 51
30T66 10Q81 0 96 -7T122 -20Q127 -22 131 -23T139 -24Q150 -24 155 -18T163 6Q168 49 174 94T190 190Q212 236 234 285T276 378T311 460T333 522H332ZM294 789Q292 808 288 820T272 840Q252 853 237 853Q224 853 214 843Q185 814 147 789T71 741Q60 731 60 718Q61
721 65 720T73 715T81 709T86 704L73 689Q97 673 113 673Q122 673 129 677Q151 687 174 700T219 727T259 755T291 781L294 789Z" />
<glyph unicode="&#xfe;" glyph-name="thorn" horiz-adv-x="350" d="M135 583Q121 595 104 605T70 621H71Q63 625 53 625Q41 625 35 618T24 594Q18 564 12 522T-1 431T-15 331T-27 233T-37 144T-42 76V64Q-42 46 -38 36T-20 16Q-9 7 4 1T32 -11Q40 -15 48 -15Q59
-15 64 -9T72 13Q72 15 72 17T73 22Q75 32 76 43T79 65Q109 77 139 94T198 131T249 175T289 223Q305 248 316 274T328 332Q328 341 327 349T324 366Q315 408 300 436T267 490Q252 509 233 516T191 524Q175 524 152 519L154 527Q155 532 155 536T156 545Q156 557
151 564T135 583ZM131 362Q148 372 163 376T191 380Q210 380 211 373Q212 369 212 363Q212 349 205 332T185 296T151 259T105 227Q112 264 118 297T131 362Z" />
<glyph unicode="&#xff;" glyph-name="ydieresis" horiz-adv-x="347" d="M332 522Q339 542 339 553Q339 571 327 587Q321 594 313 603T295 619T277 632T261 637Q252 637 246 632T236 613Q231 603 228 594T220 574Q203 532 186 492T150 409Q139 457 130 496T113
570Q104 596 96 609T71 627Q57 632 42 632Q35 632 29 632T18 630Q16 630 15 630T12 629Q-2 627 -7 622T-13 604Q-13 595 -10 585V586Q1 528 17 455T51 307Q55 290 58 273T66 239Q61 205 59 174T53 115Q51 103 51 92T48 70V71Q47 66 47 62Q47 58 47 54Q47 39 51
30T66 10Q81 0 96 -7T122 -20Q127 -22 131 -23T139 -24Q150 -24 155 -18T163 6Q168 49 174 94T190 190Q212 236 234 285T276 378T311 460T333 522H332ZM183 734V727Q183 698 197 682T233 665H236Q247 665 256 670T271 683T281 699T287 714Q288 719 288 723Q288
728 288 734Q288 750 280 766T252 791Q243 795 233 795Q210 795 197 777T183 734ZM43 735V729Q43 700 57 683T93 666H96Q107 666 116 671T131 684T141 700T147 715Q148 719 148 723T149 734Q149 751 141 767T112 792Q103 796 93 796Q71 796 58 778T43 735Z" />
</font>
</defs>
</svg>
